<svg width="16" height="17" viewBox="0 0 16 17" fill="none" xmlns="http://www.w3.org/2000/svg">
<g clip-path="url(#clip0_427_37360)">
<path d="M13.8951 11.7633C13.6733 12.2757 13.4108 12.7474 13.1066 13.181C12.692 13.7722 12.3525 14.1814 12.0908 14.4086C11.6852 14.7816 11.2507 14.9727 10.7854 14.9835C10.4513 14.9835 10.0484 14.8885 9.57947 14.6956C9.10897 14.5037 8.67659 14.4086 8.28124 14.4086C7.8666 14.4086 7.42191 14.5037 6.94625 14.6956C6.46987 14.8885 6.08611 14.9889 5.79269 14.9989C5.34646 15.0179 4.90168 14.8215 4.45771 14.4086C4.17434 14.1615 3.81991 13.7378 3.39531 13.1376C2.93976 12.4966 2.56523 11.7533 2.27181 10.9059C1.95757 9.99066 1.80005 9.10435 1.80005 8.24629C1.80005 7.26338 2.01244 6.41563 2.43785 5.70523C2.77218 5.1346 3.21697 4.68448 3.77365 4.35403C4.33033 4.02359 4.93182 3.8552 5.57958 3.84443C5.93401 3.84443 6.39881 3.95406 6.9764 4.16953C7.55237 4.38572 7.92219 4.49536 8.08433 4.49536C8.20555 4.49536 8.61639 4.36716 9.31285 4.11159C9.97147 3.87458 10.5273 3.77644 10.9827 3.8151C12.2167 3.91468 13.1437 4.40111 13.7602 5.27746C12.6567 5.94613 12.1107 6.88269 12.1216 8.08414C12.1316 9.01997 12.4711 9.79873 13.1383 10.4171C13.4407 10.7041 13.7783 10.9259 14.1541 11.0834C14.0726 11.3197 13.9866 11.546 13.8951 11.7633ZM11.0651 0.626913C11.0651 1.36041 10.7971 2.04528 10.263 2.67919C9.6184 3.43278 8.83874 3.86824 7.99326 3.79952C7.98248 3.71153 7.97624 3.61891 7.97624 3.52159C7.97624 2.81743 8.28278 2.06384 8.82715 1.44768C9.09892 1.1357 9.44458 0.876302 9.86374 0.669372C10.282 0.46553 10.6776 0.3528 11.0497 0.333496C11.0606 0.431554 11.0651 0.529617 11.0651 0.626903V0.626913Z" fill="black"/>
</g>
<defs>
<clipPath id="clip0_427_37360">
<rect width="16" height="16" fill="white" transform="translate(0 0.333313)"/>
</clipPath>
</defs>
</svg>
