<?xml version="1.0" encoding="UTF-8" standalone="no"?>
<!DOCTYPE svg PUBLIC "-//W3C//DTD SVG 20010904//EN"
              "http://www.w3.org/TR/2001/REC-SVG-20010904/DTD/svg10.dtd">

<svg xmlns="http://www.w3.org/2000/svg"
     width="3.55556in" height="3.55556in"
     viewBox="0 0 320 320">
  <path id="Selection #1"
        fill="#E9EDF2" stroke="black" stroke-width="1"
        d="M 142.00,0.21
           C 142.00,0.21 170.00,0.21 170.00,0.21
             187.40,0.03 206.96,5.73 223.00,12.20
             239.87,19.01 255.72,29.55 269.00,41.92
             292.05,63.38 306.05,86.86 314.71,117.00
             317.50,126.71 319.98,139.93 320.00,150.00
             320.00,150.00 320.00,172.00 320.00,172.00
             319.65,201.29 303.84,237.25 285.99,260.00
             272.80,276.80 255.59,290.76 237.00,301.14
             219.27,311.03 190.36,319.97 170.00,320.00
             170.00,320.00 148.00,320.00 148.00,320.00
             141.18,319.92 130.77,317.94 124.00,316.42
             76.12,305.71 33.80,272.10 13.86,227.00
             6.65,210.69 0.03,187.87 0.00,170.00
             0.00,170.00 0.00,150.00 0.00,150.00
             0.02,139.42 2.67,126.19 5.58,116.00
             16.32,78.36 40.64,44.88 74.00,24.06
             96.58,9.97 116.03,4.35 142.00,0.21 Z
           M 133.00,10.00
           C 133.00,10.00 132.00,10.00 132.00,10.00
             132.00,10.00 133.00,11.00 133.00,11.00
             133.00,11.00 133.00,10.00 133.00,10.00 Z
           M 188.00,10.00
           C 188.00,10.00 187.00,10.00 187.00,10.00
             187.00,10.00 188.00,11.00 188.00,11.00
             188.00,11.00 188.00,10.00 188.00,10.00 Z
           M 128.00,11.00
           C 128.00,11.00 127.00,11.00 127.00,11.00
             127.00,11.00 128.00,12.00 128.00,12.00
             128.00,12.00 128.00,11.00 128.00,11.00 Z
           M 193.00,11.00
           C 193.00,11.00 192.00,11.00 192.00,11.00
             192.00,11.00 193.00,12.00 193.00,12.00
             193.00,12.00 193.00,11.00 193.00,11.00 Z
           M 120.00,13.00
           C 120.00,13.00 119.00,13.00 119.00,13.00
             119.00,13.00 120.00,14.00 120.00,14.00
             120.00,14.00 120.00,13.00 120.00,13.00 Z
           M 201.00,13.00
           C 201.00,13.00 200.00,13.00 200.00,13.00
             200.00,13.00 201.00,14.00 201.00,14.00
             201.00,14.00 201.00,13.00 201.00,13.00 Z
           M 116.00,14.00
           C 116.00,14.00 115.00,14.00 115.00,14.00
             115.00,14.00 116.00,15.00 116.00,15.00
             116.00,15.00 116.00,14.00 116.00,14.00 Z
           M 205.00,14.00
           C 205.00,14.00 204.00,14.00 204.00,14.00
             204.00,14.00 205.00,15.00 205.00,15.00
             205.00,15.00 205.00,14.00 205.00,14.00 Z
           M 113.00,15.00
           C 113.00,15.00 112.00,15.00 112.00,15.00
             112.00,15.00 113.00,16.00 113.00,16.00
             113.00,16.00 113.00,15.00 113.00,15.00 Z
           M 208.00,15.00
           C 208.00,15.00 207.00,15.00 207.00,15.00
             207.00,15.00 208.00,16.00 208.00,16.00
             208.00,16.00 208.00,15.00 208.00,15.00 Z
           M 110.00,16.00
           C 110.00,16.00 109.00,16.00 109.00,16.00
             109.00,16.00 110.00,17.00 110.00,17.00
             110.00,17.00 110.00,16.00 110.00,16.00 Z
           M 211.00,16.00
           C 211.00,16.00 210.00,16.00 210.00,16.00
             210.00,16.00 211.00,17.00 211.00,17.00
             211.00,17.00 211.00,16.00 211.00,16.00 Z
           M 214.00,17.00
           C 214.00,17.00 213.00,17.00 213.00,17.00
             213.00,17.00 214.00,18.00 214.00,18.00
             214.00,18.00 214.00,17.00 214.00,17.00 Z
           M 105.00,18.00
           C 105.00,18.00 104.00,18.00 104.00,18.00
             104.00,18.00 105.00,19.00 105.00,19.00
             105.00,19.00 105.00,18.00 105.00,18.00 Z
           M 216.00,18.00
           C 216.00,18.00 215.00,18.00 215.00,18.00
             215.00,18.00 216.00,19.00 216.00,19.00
             216.00,19.00 216.00,18.00 216.00,18.00 Z
           M 102.00,19.00
           C 102.00,19.00 101.00,19.00 101.00,19.00
             101.00,19.00 102.00,20.00 102.00,20.00
             102.00,20.00 102.00,19.00 102.00,19.00 Z
           M 219.00,19.00
           C 219.00,19.00 218.00,19.00 218.00,19.00
             218.00,19.00 219.00,20.00 219.00,20.00
             219.00,20.00 219.00,19.00 219.00,19.00 Z
           M 100.00,20.00
           C 100.00,20.00 99.00,20.00 99.00,20.00
             99.00,20.00 100.00,21.00 100.00,21.00
             100.00,21.00 100.00,20.00 100.00,20.00 Z
           M 221.00,20.00
           C 221.00,20.00 220.00,20.00 220.00,20.00
             220.00,20.00 221.00,21.00 221.00,21.00
             221.00,21.00 221.00,20.00 221.00,20.00 Z
           M 98.00,21.00
           C 98.00,21.00 97.00,21.00 97.00,21.00
             97.00,21.00 98.00,22.00 98.00,22.00
             98.00,22.00 98.00,21.00 98.00,21.00 Z
           M 223.00,21.00
           C 223.00,21.00 222.00,21.00 222.00,21.00
             222.00,21.00 223.00,22.00 223.00,22.00
             223.00,22.00 223.00,21.00 223.00,21.00 Z
           M 90.00,25.00
           C 90.00,25.00 89.00,25.00 89.00,25.00
             89.00,25.00 90.00,26.00 90.00,26.00
             90.00,26.00 90.00,25.00 90.00,25.00 Z
           M 88.00,26.00
           C 88.00,26.00 87.00,26.00 87.00,26.00
             87.00,26.00 88.00,27.00 88.00,27.00
             88.00,27.00 88.00,26.00 88.00,26.00 Z
           M 233.00,26.00
           C 233.00,26.00 232.00,26.00 232.00,26.00
             232.00,26.00 233.00,27.00 233.00,27.00
             233.00,27.00 233.00,26.00 233.00,26.00 Z
           M 86.00,27.00
           C 86.00,27.00 85.00,27.00 85.00,27.00
             85.00,27.00 86.00,28.00 86.00,28.00
             86.00,28.00 86.00,27.00 86.00,27.00 Z
           M 235.00,27.00
           C 235.00,27.00 234.00,27.00 234.00,27.00
             234.00,27.00 235.00,28.00 235.00,28.00
             235.00,28.00 235.00,27.00 235.00,27.00 Z
           M 84.00,28.00
           C 84.00,28.00 83.00,28.00 83.00,28.00
             83.00,28.00 84.00,29.00 84.00,29.00
             84.00,29.00 84.00,28.00 84.00,28.00 Z
           M 237.00,28.00
           C 237.00,28.00 236.00,28.00 236.00,28.00
             236.00,28.00 237.00,29.00 237.00,29.00
             237.00,29.00 237.00,28.00 237.00,28.00 Z
           M 81.00,30.00
           C 81.00,30.00 80.00,30.00 80.00,30.00
             80.00,30.00 81.00,31.00 81.00,31.00
             81.00,31.00 81.00,30.00 81.00,30.00 Z
           M 240.00,30.00
           C 240.00,30.00 239.00,30.00 239.00,30.00
             239.00,30.00 240.00,31.00 240.00,31.00
             240.00,31.00 240.00,30.00 240.00,30.00 Z
           M 79.00,31.00
           C 79.00,31.00 78.00,31.00 78.00,31.00
             78.00,31.00 79.00,32.00 79.00,32.00
             79.00,32.00 79.00,31.00 79.00,31.00 Z
           M 242.00,31.00
           C 242.00,31.00 241.00,31.00 241.00,31.00
             241.00,31.00 242.00,32.00 242.00,32.00
             242.00,32.00 242.00,31.00 242.00,31.00 Z
           M 78.00,32.00
           C 78.00,32.00 77.00,32.00 77.00,32.00
             77.00,32.00 78.00,33.00 78.00,33.00
             78.00,33.00 78.00,32.00 78.00,32.00 Z
           M 243.00,32.00
           C 243.00,32.00 242.00,32.00 242.00,32.00
             242.00,32.00 243.00,33.00 243.00,33.00
             243.00,33.00 243.00,32.00 243.00,32.00 Z
           M 76.00,33.00
           C 76.00,33.00 75.00,33.00 75.00,33.00
             75.00,33.00 76.00,34.00 76.00,34.00
             76.00,34.00 76.00,33.00 76.00,33.00 Z
           M 245.00,33.00
           C 245.00,33.00 244.00,33.00 244.00,33.00
             244.00,33.00 245.00,34.00 245.00,34.00
             245.00,34.00 245.00,33.00 245.00,33.00 Z
           M 75.00,34.00
           C 75.00,34.00 74.00,34.00 74.00,34.00
             74.00,34.00 75.00,35.00 75.00,35.00
             75.00,35.00 75.00,34.00 75.00,34.00 Z
           M 246.00,34.00
           C 246.00,34.00 245.00,34.00 245.00,34.00
             245.00,34.00 246.00,35.00 246.00,35.00
             246.00,35.00 246.00,34.00 246.00,34.00 Z
           M 73.00,35.00
           C 73.00,35.00 72.00,35.00 72.00,35.00
             72.00,35.00 73.00,36.00 73.00,36.00
             73.00,36.00 73.00,35.00 73.00,35.00 Z
           M 248.00,35.00
           C 248.00,35.00 247.00,35.00 247.00,35.00
             247.00,35.00 248.00,36.00 248.00,36.00
             248.00,36.00 248.00,35.00 248.00,35.00 Z
           M 72.00,36.00
           C 72.00,36.00 71.00,36.00 71.00,36.00
             71.00,36.00 72.00,37.00 72.00,37.00
             72.00,37.00 72.00,36.00 72.00,36.00 Z
           M 249.00,36.00
           C 249.00,36.00 248.00,36.00 248.00,36.00
             248.00,36.00 249.00,37.00 249.00,37.00
             249.00,37.00 249.00,36.00 249.00,36.00 Z
           M 69.00,38.00
           C 69.00,38.00 68.00,38.00 68.00,38.00
             68.00,38.00 69.00,39.00 69.00,39.00
             69.00,39.00 69.00,38.00 69.00,38.00 Z
           M 252.00,38.00
           C 252.00,38.00 251.00,38.00 251.00,38.00
             251.00,38.00 252.00,39.00 252.00,39.00
             252.00,39.00 252.00,38.00 252.00,38.00 Z
           M 68.00,39.00
           C 68.00,39.00 67.00,39.00 67.00,39.00
             67.00,39.00 68.00,40.00 68.00,40.00
             68.00,40.00 68.00,39.00 68.00,39.00 Z
           M 253.00,39.00
           C 253.00,39.00 252.00,39.00 252.00,39.00
             252.00,39.00 253.00,40.00 253.00,40.00
             253.00,40.00 253.00,39.00 253.00,39.00 Z
           M 65.00,41.00
           C 65.00,41.00 64.00,41.00 64.00,41.00
             64.00,41.00 65.00,42.00 65.00,42.00
             65.00,42.00 65.00,41.00 65.00,41.00 Z
           M 256.00,41.00
           C 256.00,41.00 255.00,41.00 255.00,41.00
             255.00,41.00 256.00,42.00 256.00,42.00
             256.00,42.00 256.00,41.00 256.00,41.00 Z
           M 64.00,42.00
           C 64.00,42.00 63.00,42.00 63.00,42.00
             63.00,42.00 64.00,43.00 64.00,43.00
             64.00,43.00 64.00,42.00 64.00,42.00 Z
           M 257.00,42.00
           C 257.00,42.00 256.00,42.00 256.00,42.00
             256.00,42.00 257.00,43.00 257.00,43.00
             257.00,43.00 257.00,42.00 257.00,42.00 Z
           M 63.00,43.00
           C 63.00,43.00 62.00,43.00 62.00,43.00
             62.00,43.00 63.00,44.00 63.00,44.00
             63.00,44.00 63.00,43.00 63.00,43.00 Z
           M 258.00,43.00
           C 258.00,43.00 257.00,43.00 257.00,43.00
             257.00,43.00 258.00,44.00 258.00,44.00
             258.00,44.00 258.00,43.00 258.00,43.00 Z
           M 58.00,47.00
           C 58.00,47.00 57.00,47.00 57.00,47.00
             57.00,47.00 58.00,48.00 58.00,48.00
             58.00,48.00 58.00,47.00 58.00,47.00 Z
           M 263.00,47.00
           C 263.00,47.00 262.00,47.00 262.00,47.00
             262.00,47.00 263.00,48.00 263.00,48.00
             263.00,48.00 263.00,47.00 263.00,47.00 Z
           M 57.00,48.00
           C 57.00,48.00 56.00,48.00 56.00,48.00
             56.00,48.00 57.00,49.00 57.00,49.00
             57.00,49.00 57.00,48.00 57.00,48.00 Z
           M 264.00,48.00
           C 264.00,48.00 263.00,48.00 263.00,48.00
             263.00,48.00 264.00,49.00 264.00,49.00
             264.00,49.00 264.00,48.00 264.00,48.00 Z
           M 56.00,49.00
           C 56.00,49.00 55.00,49.00 55.00,49.00
             55.00,49.00 56.00,50.00 56.00,50.00
             56.00,50.00 56.00,49.00 56.00,49.00 Z
           M 265.00,49.00
           C 265.00,49.00 264.00,49.00 264.00,49.00
             264.00,49.00 265.00,50.00 265.00,50.00
             265.00,50.00 265.00,49.00 265.00,49.00 Z
           M 55.00,50.00
           C 55.00,50.00 54.00,50.00 54.00,50.00
             54.00,50.00 55.00,51.00 55.00,51.00
             55.00,51.00 55.00,50.00 55.00,50.00 Z
           M 266.00,50.00
           C 266.00,50.00 265.00,50.00 265.00,50.00
             265.00,50.00 266.00,51.00 266.00,51.00
             266.00,51.00 266.00,50.00 266.00,50.00 Z
           M 54.00,51.00
           C 54.00,51.00 53.00,51.00 53.00,51.00
             53.00,51.00 54.00,52.00 54.00,52.00
             54.00,52.00 54.00,51.00 54.00,51.00 Z
           M 267.00,51.00
           C 267.00,51.00 266.00,51.00 266.00,51.00
             266.00,51.00 267.00,52.00 267.00,52.00
             267.00,52.00 267.00,51.00 267.00,51.00 Z
           M 53.00,52.00
           C 53.00,52.00 52.00,52.00 52.00,52.00
             52.00,52.00 53.00,53.00 53.00,53.00
             53.00,53.00 53.00,52.00 53.00,52.00 Z
           M 268.00,52.00
           C 268.00,52.00 267.00,52.00 267.00,52.00
             267.00,52.00 268.00,53.00 268.00,53.00
             268.00,53.00 268.00,52.00 268.00,52.00 Z
           M 52.00,53.00
           C 52.00,53.00 51.00,53.00 51.00,53.00
             51.00,53.00 52.00,54.00 52.00,54.00
             52.00,54.00 52.00,53.00 52.00,53.00 Z
           M 269.00,53.00
           C 269.00,53.00 268.00,53.00 268.00,53.00
             268.00,53.00 269.00,54.00 269.00,54.00
             269.00,54.00 269.00,53.00 269.00,53.00 Z
           M 51.00,54.00
           C 51.00,54.00 50.00,54.00 50.00,54.00
             50.00,54.00 51.00,55.00 51.00,55.00
             51.00,55.00 51.00,54.00 51.00,54.00 Z
           M 270.00,54.00
           C 270.00,54.00 269.00,54.00 269.00,54.00
             269.00,54.00 270.00,55.00 270.00,55.00
             270.00,55.00 270.00,54.00 270.00,54.00 Z
           M 50.00,55.00
           C 50.00,55.00 49.00,55.00 49.00,55.00
             49.00,55.00 50.00,56.00 50.00,56.00
             50.00,56.00 50.00,55.00 50.00,55.00 Z
           M 271.00,55.00
           C 271.00,55.00 270.00,55.00 270.00,55.00
             270.00,55.00 271.00,56.00 271.00,56.00
             271.00,56.00 271.00,55.00 271.00,55.00 Z
           M 49.00,56.00
           C 49.00,56.00 48.00,56.00 48.00,56.00
             48.00,56.00 49.00,57.00 49.00,57.00
             49.00,57.00 49.00,56.00 49.00,56.00 Z
           M 272.00,56.00
           C 272.00,56.00 271.00,56.00 271.00,56.00
             271.00,56.00 272.00,57.00 272.00,57.00
             272.00,57.00 272.00,56.00 272.00,56.00 Z
           M 48.00,57.00
           C 48.00,57.00 47.00,57.00 47.00,57.00
             47.00,57.00 48.00,58.00 48.00,58.00
             48.00,58.00 48.00,57.00 48.00,57.00 Z
           M 273.00,57.00
           C 273.00,57.00 272.00,57.00 272.00,57.00
             272.00,57.00 273.00,58.00 273.00,58.00
             273.00,58.00 273.00,57.00 273.00,57.00 Z
           M 44.00,62.00
           C 44.00,62.00 43.00,62.00 43.00,62.00
             43.00,62.00 44.00,63.00 44.00,63.00
             44.00,63.00 44.00,62.00 44.00,62.00 Z
           M 277.00,62.00
           C 277.00,62.00 276.00,62.00 276.00,62.00
             276.00,62.00 277.00,63.00 277.00,63.00
             277.00,63.00 277.00,62.00 277.00,62.00 Z
           M 43.00,63.00
           C 43.00,63.00 42.00,63.00 42.00,63.00
             42.00,63.00 43.00,64.00 43.00,64.00
             43.00,64.00 43.00,63.00 43.00,63.00 Z
           M 278.00,63.00
           C 278.00,63.00 277.00,63.00 277.00,63.00
             277.00,63.00 278.00,64.00 278.00,64.00
             278.00,64.00 278.00,63.00 278.00,63.00 Z
           M 42.00,64.00
           C 42.00,64.00 41.00,64.00 41.00,64.00
             41.00,64.00 42.00,65.00 42.00,65.00
             42.00,65.00 42.00,64.00 42.00,64.00 Z
           M 279.00,64.00
           C 279.00,64.00 278.00,64.00 278.00,64.00
             278.00,64.00 279.00,65.00 279.00,65.00
             279.00,65.00 279.00,64.00 279.00,64.00 Z
           M 40.00,67.00
           C 40.00,67.00 39.00,67.00 39.00,67.00
             39.00,67.00 40.00,68.00 40.00,68.00
             40.00,68.00 40.00,67.00 40.00,67.00 Z
           M 281.00,67.00
           C 281.00,67.00 280.00,67.00 280.00,67.00
             280.00,67.00 281.00,68.00 281.00,68.00
             281.00,68.00 281.00,67.00 281.00,67.00 Z
           M 39.00,68.00
           C 39.00,68.00 38.00,68.00 38.00,68.00
             38.00,68.00 39.00,69.00 39.00,69.00
             39.00,69.00 39.00,68.00 39.00,68.00 Z
           M 282.00,68.00
           C 282.00,68.00 281.00,68.00 281.00,68.00
             281.00,68.00 282.00,69.00 282.00,69.00
             282.00,69.00 282.00,68.00 282.00,68.00 Z
           M 37.00,71.00
           C 37.00,71.00 36.00,71.00 36.00,71.00
             36.00,71.00 37.00,72.00 37.00,72.00
             37.00,72.00 37.00,71.00 37.00,71.00 Z
           M 284.00,71.00
           C 284.00,71.00 283.00,71.00 283.00,71.00
             283.00,71.00 284.00,72.00 284.00,72.00
             284.00,72.00 284.00,71.00 284.00,71.00 Z
           M 36.00,72.00
           C 36.00,72.00 35.00,72.00 35.00,72.00
             35.00,72.00 36.00,73.00 36.00,73.00
             36.00,73.00 36.00,72.00 36.00,72.00 Z
           M 285.00,72.00
           C 285.00,72.00 284.00,72.00 284.00,72.00
             284.00,72.00 285.00,73.00 285.00,73.00
             285.00,73.00 285.00,72.00 285.00,72.00 Z
           M 286.00,74.00
           C 286.00,74.00 285.00,74.00 285.00,74.00
             285.00,74.00 286.00,75.00 286.00,75.00
             286.00,75.00 286.00,74.00 286.00,74.00 Z
           M 34.00,75.00
           C 34.00,75.00 33.00,75.00 33.00,75.00
             33.00,75.00 34.00,76.00 34.00,76.00
             34.00,76.00 34.00,75.00 34.00,75.00 Z
           M 287.00,75.00
           C 287.00,75.00 286.00,75.00 286.00,75.00
             286.00,75.00 287.00,76.00 287.00,76.00
             287.00,76.00 287.00,75.00 287.00,75.00 Z
           M 33.00,77.00
           C 33.00,77.00 32.00,77.00 32.00,77.00
             32.00,77.00 33.00,78.00 33.00,78.00
             33.00,78.00 33.00,77.00 33.00,77.00 Z
           M 288.00,77.00
           C 288.00,77.00 287.00,77.00 287.00,77.00
             287.00,77.00 288.00,78.00 288.00,78.00
             288.00,78.00 288.00,77.00 288.00,77.00 Z
           M 32.00,78.00
           C 32.00,78.00 31.00,78.00 31.00,78.00
             31.00,78.00 32.00,79.00 32.00,79.00
             32.00,79.00 32.00,78.00 32.00,78.00 Z
           M 289.00,78.00
           C 289.00,78.00 288.00,78.00 288.00,78.00
             288.00,78.00 289.00,79.00 289.00,79.00
             289.00,79.00 289.00,78.00 289.00,78.00 Z
           M 31.00,80.00
           C 31.00,80.00 30.00,80.00 30.00,80.00
             30.00,80.00 31.00,81.00 31.00,81.00
             31.00,81.00 31.00,80.00 31.00,80.00 Z
           M 290.00,80.00
           C 290.00,80.00 289.00,80.00 289.00,80.00
             289.00,80.00 290.00,81.00 290.00,81.00
             290.00,81.00 290.00,80.00 290.00,80.00 Z
           M 29.00,83.00
           C 29.00,83.00 28.00,83.00 28.00,83.00
             28.00,83.00 29.00,84.00 29.00,84.00
             29.00,84.00 29.00,83.00 29.00,83.00 Z
           M 292.00,83.00
           C 292.00,83.00 291.00,83.00 291.00,83.00
             291.00,83.00 292.00,84.00 292.00,84.00
             292.00,84.00 292.00,83.00 292.00,83.00 Z
           M 28.00,85.00
           C 28.00,85.00 27.00,85.00 27.00,85.00
             27.00,85.00 28.00,86.00 28.00,86.00
             28.00,86.00 28.00,85.00 28.00,85.00 Z
           M 293.00,85.00
           C 293.00,85.00 292.00,85.00 292.00,85.00
             292.00,85.00 293.00,86.00 293.00,86.00
             293.00,86.00 293.00,85.00 293.00,85.00 Z
           M 27.00,87.00
           C 27.00,87.00 26.00,87.00 26.00,87.00
             26.00,87.00 27.00,88.00 27.00,88.00
             27.00,88.00 27.00,87.00 27.00,87.00 Z
           M 294.00,87.00
           C 294.00,87.00 293.00,87.00 293.00,87.00
             293.00,87.00 294.00,88.00 294.00,88.00
             294.00,88.00 294.00,87.00 294.00,87.00 Z
           M 295.00,89.00
           C 295.00,89.00 294.00,89.00 294.00,89.00
             294.00,89.00 295.00,90.00 295.00,90.00
             295.00,90.00 295.00,89.00 295.00,89.00 Z
           M 23.00,95.00
           C 23.00,95.00 22.00,95.00 22.00,95.00
             22.00,95.00 23.00,96.00 23.00,96.00
             23.00,96.00 23.00,95.00 23.00,95.00 Z
           M 22.00,97.00
           C 22.00,97.00 21.00,97.00 21.00,97.00
             21.00,97.00 22.00,98.00 22.00,98.00
             22.00,98.00 22.00,97.00 22.00,97.00 Z
           M 299.00,97.00
           C 299.00,97.00 298.00,97.00 298.00,97.00
             298.00,97.00 299.00,98.00 299.00,98.00
             299.00,98.00 299.00,97.00 299.00,97.00 Z
           M 21.00,99.00
           C 21.00,99.00 20.00,99.00 20.00,99.00
             20.00,99.00 21.00,100.00 21.00,100.00
             21.00,100.00 21.00,99.00 21.00,99.00 Z
           M 300.00,99.00
           C 300.00,99.00 299.00,99.00 299.00,99.00
             299.00,99.00 300.00,100.00 300.00,100.00
             300.00,100.00 300.00,99.00 300.00,99.00 Z
           M 20.00,101.00
           C 20.00,101.00 19.00,101.00 19.00,101.00
             19.00,101.00 20.00,102.00 20.00,102.00
             20.00,102.00 20.00,101.00 20.00,101.00 Z
           M 301.00,101.00
           C 301.00,101.00 300.00,101.00 300.00,101.00
             300.00,101.00 301.00,102.00 301.00,102.00
             301.00,102.00 301.00,101.00 301.00,101.00 Z
           M 19.00,104.00
           C 19.00,104.00 18.00,104.00 18.00,104.00
             18.00,104.00 19.00,105.00 19.00,105.00
             19.00,105.00 19.00,104.00 19.00,104.00 Z
           M 302.00,104.00
           C 302.00,104.00 301.00,104.00 301.00,104.00
             301.00,104.00 302.00,105.00 302.00,105.00
             302.00,105.00 302.00,104.00 302.00,104.00 Z
           M 18.00,106.00
           C 18.00,106.00 17.00,106.00 17.00,106.00
             17.00,106.00 18.00,107.00 18.00,107.00
             18.00,107.00 18.00,106.00 18.00,106.00 Z
           M 17.00,109.00
           C 17.00,109.00 16.00,109.00 16.00,109.00
             16.00,109.00 17.00,110.00 17.00,110.00
             17.00,110.00 17.00,109.00 17.00,109.00 Z
           M 304.00,109.00
           C 304.00,109.00 303.00,109.00 303.00,109.00
             303.00,109.00 304.00,110.00 304.00,110.00
             304.00,110.00 304.00,109.00 304.00,109.00 Z
           M 16.00,112.00
           C 16.00,112.00 15.00,112.00 15.00,112.00
             15.00,112.00 16.00,113.00 16.00,113.00
             16.00,113.00 16.00,112.00 16.00,112.00 Z
           M 305.00,112.00
           C 305.00,112.00 304.00,112.00 304.00,112.00
             304.00,112.00 305.00,113.00 305.00,113.00
             305.00,113.00 305.00,112.00 305.00,112.00 Z
           M 15.00,115.00
           C 15.00,115.00 14.00,115.00 14.00,115.00
             14.00,115.00 15.00,116.00 15.00,116.00
             15.00,116.00 15.00,115.00 15.00,115.00 Z
           M 306.00,115.00
           C 306.00,115.00 305.00,115.00 305.00,115.00
             305.00,115.00 306.00,116.00 306.00,116.00
             306.00,116.00 306.00,115.00 306.00,115.00 Z
           M 14.00,119.00
           C 14.00,119.00 13.00,119.00 13.00,119.00
             13.00,119.00 14.00,120.00 14.00,120.00
             14.00,120.00 14.00,119.00 14.00,119.00 Z
           M 307.00,119.00
           C 307.00,119.00 306.00,119.00 306.00,119.00
             306.00,119.00 307.00,120.00 307.00,120.00
             307.00,120.00 307.00,119.00 307.00,119.00 Z
           M 12.00,127.00
           C 12.00,127.00 11.00,127.00 11.00,127.00
             11.00,127.00 12.00,128.00 12.00,128.00
             12.00,128.00 12.00,127.00 12.00,127.00 Z
           M 309.00,127.00
           C 309.00,127.00 308.00,127.00 308.00,127.00
             308.00,127.00 309.00,128.00 309.00,128.00
             309.00,128.00 309.00,127.00 309.00,127.00 Z
           M 11.00,132.00
           C 11.00,132.00 10.00,132.00 10.00,132.00
             10.00,132.00 11.00,133.00 11.00,133.00
             11.00,133.00 11.00,132.00 11.00,132.00 Z
           M 310.00,132.00
           C 310.00,132.00 309.00,132.00 309.00,132.00
             309.00,132.00 310.00,133.00 310.00,133.00
             310.00,133.00 310.00,132.00 310.00,132.00 Z
           M 310.00,187.00
           C 310.00,187.00 309.00,187.00 309.00,187.00
             309.00,187.00 310.00,188.00 310.00,188.00
             310.00,188.00 310.00,187.00 310.00,187.00 Z
           M 12.00,192.00
           C 12.00,192.00 11.00,192.00 11.00,192.00
             11.00,192.00 12.00,193.00 12.00,193.00
             12.00,193.00 12.00,192.00 12.00,192.00 Z
           M 309.00,192.00
           C 309.00,192.00 308.00,192.00 308.00,192.00
             308.00,192.00 309.00,193.00 309.00,193.00
             309.00,193.00 309.00,192.00 309.00,192.00 Z
           M 14.00,200.00
           C 14.00,200.00 13.00,200.00 13.00,200.00
             13.00,200.00 14.00,201.00 14.00,201.00
             14.00,201.00 14.00,200.00 14.00,200.00 Z
           M 307.00,200.00
           C 307.00,200.00 306.00,200.00 306.00,200.00
             306.00,200.00 307.00,201.00 307.00,201.00
             307.00,201.00 307.00,200.00 307.00,200.00 Z
           M 15.00,204.00
           C 15.00,204.00 14.00,204.00 14.00,204.00
             14.00,204.00 15.00,205.00 15.00,205.00
             15.00,205.00 15.00,204.00 15.00,204.00 Z
           M 306.00,204.00
           C 306.00,204.00 305.00,204.00 305.00,204.00
             305.00,204.00 306.00,205.00 306.00,205.00
             306.00,205.00 306.00,204.00 306.00,204.00 Z
           M 16.00,207.00
           C 16.00,207.00 15.00,207.00 15.00,207.00
             15.00,207.00 16.00,208.00 16.00,208.00
             16.00,208.00 16.00,207.00 16.00,207.00 Z
           M 305.00,207.00
           C 305.00,207.00 304.00,207.00 304.00,207.00
             304.00,207.00 305.00,208.00 305.00,208.00
             305.00,208.00 305.00,207.00 305.00,207.00 Z
           M 17.00,210.00
           C 17.00,210.00 16.00,210.00 16.00,210.00
             16.00,210.00 17.00,211.00 17.00,211.00
             17.00,211.00 17.00,210.00 17.00,210.00 Z
           M 304.00,210.00
           C 304.00,210.00 303.00,210.00 303.00,210.00
             303.00,210.00 304.00,211.00 304.00,211.00
             304.00,211.00 304.00,210.00 304.00,210.00 Z
           M 18.00,213.00
           C 18.00,213.00 17.00,213.00 17.00,213.00
             17.00,213.00 18.00,214.00 18.00,214.00
             18.00,214.00 18.00,213.00 18.00,213.00 Z
           M 19.00,215.00
           C 19.00,215.00 18.00,215.00 18.00,215.00
             18.00,215.00 19.00,216.00 19.00,216.00
             19.00,216.00 19.00,215.00 19.00,215.00 Z
           M 302.00,215.00
           C 302.00,215.00 301.00,215.00 301.00,215.00
             301.00,215.00 302.00,216.00 302.00,216.00
             302.00,216.00 302.00,215.00 302.00,215.00 Z
           M 20.00,218.00
           C 20.00,218.00 19.00,218.00 19.00,218.00
             19.00,218.00 20.00,219.00 20.00,219.00
             20.00,219.00 20.00,218.00 20.00,218.00 Z
           M 301.00,218.00
           C 301.00,218.00 300.00,218.00 300.00,218.00
             300.00,218.00 301.00,219.00 301.00,219.00
             301.00,219.00 301.00,218.00 301.00,218.00 Z
           M 21.00,220.00
           C 21.00,220.00 20.00,220.00 20.00,220.00
             20.00,220.00 21.00,221.00 21.00,221.00
             21.00,221.00 21.00,220.00 21.00,220.00 Z
           M 300.00,220.00
           C 300.00,220.00 299.00,220.00 299.00,220.00
             299.00,220.00 300.00,221.00 300.00,221.00
             300.00,221.00 300.00,220.00 300.00,220.00 Z
           M 22.00,222.00
           C 22.00,222.00 21.00,222.00 21.00,222.00
             21.00,222.00 22.00,223.00 22.00,223.00
             22.00,223.00 22.00,222.00 22.00,222.00 Z
           M 299.00,222.00
           C 299.00,222.00 298.00,222.00 298.00,222.00
             298.00,222.00 299.00,223.00 299.00,223.00
             299.00,223.00 299.00,222.00 299.00,222.00 Z
           M 23.00,224.00
           C 23.00,224.00 22.00,224.00 22.00,224.00
             22.00,224.00 23.00,225.00 23.00,225.00
             23.00,225.00 23.00,224.00 23.00,224.00 Z
           M 298.00,224.00
           C 298.00,224.00 297.00,224.00 297.00,224.00
             297.00,224.00 298.00,225.00 298.00,225.00
             298.00,225.00 298.00,224.00 298.00,224.00 Z
           M 295.00,230.00
           C 295.00,230.00 294.00,230.00 294.00,230.00
             294.00,230.00 295.00,231.00 295.00,231.00
             295.00,231.00 295.00,230.00 295.00,230.00 Z
           M 27.00,232.00
           C 27.00,232.00 26.00,232.00 26.00,232.00
             26.00,232.00 27.00,233.00 27.00,233.00
             27.00,233.00 27.00,232.00 27.00,232.00 Z
           M 294.00,232.00
           C 294.00,232.00 293.00,232.00 293.00,232.00
             293.00,232.00 294.00,233.00 294.00,233.00
             294.00,233.00 294.00,232.00 294.00,232.00 Z
           M 28.00,234.00
           C 28.00,234.00 27.00,234.00 27.00,234.00
             27.00,234.00 28.00,235.00 28.00,235.00
             28.00,235.00 28.00,234.00 28.00,234.00 Z
           M 293.00,234.00
           C 293.00,234.00 292.00,234.00 292.00,234.00
             292.00,234.00 293.00,235.00 293.00,235.00
             293.00,235.00 293.00,234.00 293.00,234.00 Z
           M 29.00,236.00
           C 29.00,236.00 28.00,236.00 28.00,236.00
             28.00,236.00 29.00,237.00 29.00,237.00
             29.00,237.00 29.00,236.00 29.00,236.00 Z
           M 292.00,236.00
           C 292.00,236.00 291.00,236.00 291.00,236.00
             291.00,236.00 292.00,237.00 292.00,237.00
             292.00,237.00 292.00,236.00 292.00,236.00 Z
           M 31.00,239.00
           C 31.00,239.00 30.00,239.00 30.00,239.00
             30.00,239.00 31.00,240.00 31.00,240.00
             31.00,240.00 31.00,239.00 31.00,239.00 Z
           M 290.00,239.00
           C 290.00,239.00 289.00,239.00 289.00,239.00
             289.00,239.00 290.00,240.00 290.00,240.00
             290.00,240.00 290.00,239.00 290.00,239.00 Z
           M 32.00,241.00
           C 32.00,241.00 31.00,241.00 31.00,241.00
             31.00,241.00 32.00,242.00 32.00,242.00
             32.00,242.00 32.00,241.00 32.00,241.00 Z
           M 289.00,241.00
           C 289.00,241.00 288.00,241.00 288.00,241.00
             288.00,241.00 289.00,242.00 289.00,242.00
             289.00,242.00 289.00,241.00 289.00,241.00 Z
           M 33.00,242.00
           C 33.00,242.00 32.00,242.00 32.00,242.00
             32.00,242.00 33.00,243.00 33.00,243.00
             33.00,243.00 33.00,242.00 33.00,242.00 Z
           M 288.00,242.00
           C 288.00,242.00 287.00,242.00 287.00,242.00
             287.00,242.00 288.00,243.00 288.00,243.00
             288.00,243.00 288.00,242.00 288.00,242.00 Z
           M 34.00,244.00
           C 34.00,244.00 33.00,244.00 33.00,244.00
             33.00,244.00 34.00,245.00 34.00,245.00
             34.00,245.00 34.00,244.00 34.00,244.00 Z
           M 287.00,244.00
           C 287.00,244.00 286.00,244.00 286.00,244.00
             286.00,244.00 287.00,245.00 287.00,245.00
             287.00,245.00 287.00,244.00 287.00,244.00 Z
           M 35.00,245.00
           C 35.00,245.00 34.00,245.00 34.00,245.00
             34.00,245.00 35.00,246.00 35.00,246.00
             35.00,246.00 35.00,245.00 35.00,245.00 Z
           M 286.00,245.00
           C 286.00,245.00 285.00,245.00 285.00,245.00
             285.00,245.00 286.00,246.00 286.00,246.00
             286.00,246.00 286.00,245.00 286.00,245.00 Z
           M 36.00,247.00
           C 36.00,247.00 35.00,247.00 35.00,247.00
             35.00,247.00 36.00,248.00 36.00,248.00
             36.00,248.00 36.00,247.00 36.00,247.00 Z
           M 285.00,247.00
           C 285.00,247.00 284.00,247.00 284.00,247.00
             284.00,247.00 285.00,248.00 285.00,248.00
             285.00,248.00 285.00,247.00 285.00,247.00 Z
           M 37.00,248.00
           C 37.00,248.00 36.00,248.00 36.00,248.00
             36.00,248.00 37.00,249.00 37.00,249.00
             37.00,249.00 37.00,248.00 37.00,248.00 Z
           M 284.00,248.00
           C 284.00,248.00 283.00,248.00 283.00,248.00
             283.00,248.00 284.00,249.00 284.00,249.00
             284.00,249.00 284.00,248.00 284.00,248.00 Z
           M 39.00,251.00
           C 39.00,251.00 38.00,251.00 38.00,251.00
             38.00,251.00 39.00,252.00 39.00,252.00
             39.00,252.00 39.00,251.00 39.00,251.00 Z
           M 282.00,251.00
           C 282.00,251.00 281.00,251.00 281.00,251.00
             281.00,251.00 282.00,252.00 282.00,252.00
             282.00,252.00 282.00,251.00 282.00,251.00 Z
           M 40.00,252.00
           C 40.00,252.00 39.00,252.00 39.00,252.00
             39.00,252.00 40.00,253.00 40.00,253.00
             40.00,253.00 40.00,252.00 40.00,252.00 Z
           M 281.00,252.00
           C 281.00,252.00 280.00,252.00 280.00,252.00
             280.00,252.00 281.00,253.00 281.00,253.00
             281.00,253.00 281.00,252.00 281.00,252.00 Z
           M 42.00,255.00
           C 42.00,255.00 41.00,255.00 41.00,255.00
             41.00,255.00 42.00,256.00 42.00,256.00
             42.00,256.00 42.00,255.00 42.00,255.00 Z
           M 43.00,256.00
           C 43.00,256.00 42.00,256.00 42.00,256.00
             42.00,256.00 43.00,257.00 43.00,257.00
             43.00,257.00 43.00,256.00 43.00,256.00 Z
           M 278.00,256.00
           C 278.00,256.00 277.00,256.00 277.00,256.00
             277.00,256.00 278.00,257.00 278.00,257.00
             278.00,257.00 278.00,256.00 278.00,256.00 Z
           M 44.00,257.00
           C 44.00,257.00 43.00,257.00 43.00,257.00
             43.00,257.00 44.00,258.00 44.00,258.00
             44.00,258.00 44.00,257.00 44.00,257.00 Z
           M 277.00,257.00
           C 277.00,257.00 276.00,257.00 276.00,257.00
             276.00,257.00 277.00,258.00 277.00,258.00
             277.00,258.00 277.00,257.00 277.00,257.00 Z
           M 48.00,262.00
           C 48.00,262.00 47.00,262.00 47.00,262.00
             47.00,262.00 48.00,263.00 48.00,263.00
             48.00,263.00 48.00,262.00 48.00,262.00 Z
           M 273.00,262.00
           C 273.00,262.00 272.00,262.00 272.00,262.00
             272.00,262.00 273.00,263.00 273.00,263.00
             273.00,263.00 273.00,262.00 273.00,262.00 Z
           M 49.00,263.00
           C 49.00,263.00 48.00,263.00 48.00,263.00
             48.00,263.00 49.00,264.00 49.00,264.00
             49.00,264.00 49.00,263.00 49.00,263.00 Z
           M 272.00,263.00
           C 272.00,263.00 271.00,263.00 271.00,263.00
             271.00,263.00 272.00,264.00 272.00,264.00
             272.00,264.00 272.00,263.00 272.00,263.00 Z
           M 50.00,264.00
           C 50.00,264.00 49.00,264.00 49.00,264.00
             49.00,264.00 50.00,265.00 50.00,265.00
             50.00,265.00 50.00,264.00 50.00,264.00 Z
           M 271.00,264.00
           C 271.00,264.00 270.00,264.00 270.00,264.00
             270.00,264.00 271.00,265.00 271.00,265.00
             271.00,265.00 271.00,264.00 271.00,264.00 Z
           M 51.00,265.00
           C 51.00,265.00 50.00,265.00 50.00,265.00
             50.00,265.00 51.00,266.00 51.00,266.00
             51.00,266.00 51.00,265.00 51.00,265.00 Z
           M 270.00,265.00
           C 270.00,265.00 269.00,265.00 269.00,265.00
             269.00,265.00 270.00,266.00 270.00,266.00
             270.00,266.00 270.00,265.00 270.00,265.00 Z
           M 52.00,266.00
           C 52.00,266.00 51.00,266.00 51.00,266.00
             51.00,266.00 52.00,267.00 52.00,267.00
             52.00,267.00 52.00,266.00 52.00,266.00 Z
           M 269.00,266.00
           C 269.00,266.00 268.00,266.00 268.00,266.00
             268.00,266.00 269.00,267.00 269.00,267.00
             269.00,267.00 269.00,266.00 269.00,266.00 Z
           M 53.00,267.00
           C 53.00,267.00 52.00,267.00 52.00,267.00
             52.00,267.00 53.00,268.00 53.00,268.00
             53.00,268.00 53.00,267.00 53.00,267.00 Z
           M 268.00,267.00
           C 268.00,267.00 267.00,267.00 267.00,267.00
             267.00,267.00 268.00,268.00 268.00,268.00
             268.00,268.00 268.00,267.00 268.00,267.00 Z
           M 54.00,268.00
           C 54.00,268.00 53.00,268.00 53.00,268.00
             53.00,268.00 54.00,269.00 54.00,269.00
             54.00,269.00 54.00,268.00 54.00,268.00 Z
           M 267.00,268.00
           C 267.00,268.00 266.00,268.00 266.00,268.00
             266.00,268.00 267.00,269.00 267.00,269.00
             267.00,269.00 267.00,268.00 267.00,268.00 Z
           M 55.00,269.00
           C 55.00,269.00 54.00,269.00 54.00,269.00
             54.00,269.00 55.00,270.00 55.00,270.00
             55.00,270.00 55.00,269.00 55.00,269.00 Z
           M 266.00,269.00
           C 266.00,269.00 265.00,269.00 265.00,269.00
             265.00,269.00 266.00,270.00 266.00,270.00
             266.00,270.00 266.00,269.00 266.00,269.00 Z
           M 56.00,270.00
           C 56.00,270.00 55.00,270.00 55.00,270.00
             55.00,270.00 56.00,271.00 56.00,271.00
             56.00,271.00 56.00,270.00 56.00,270.00 Z
           M 265.00,270.00
           C 265.00,270.00 264.00,270.00 264.00,270.00
             264.00,270.00 265.00,271.00 265.00,271.00
             265.00,271.00 265.00,270.00 265.00,270.00 Z
           M 57.00,271.00
           C 57.00,271.00 56.00,271.00 56.00,271.00
             56.00,271.00 57.00,272.00 57.00,272.00
             57.00,272.00 57.00,271.00 57.00,271.00 Z
           M 264.00,271.00
           C 264.00,271.00 263.00,271.00 263.00,271.00
             263.00,271.00 264.00,272.00 264.00,272.00
             264.00,272.00 264.00,271.00 264.00,271.00 Z
           M 58.00,272.00
           C 58.00,272.00 57.00,272.00 57.00,272.00
             57.00,272.00 58.00,273.00 58.00,273.00
             58.00,273.00 58.00,272.00 58.00,272.00 Z
           M 263.00,272.00
           C 263.00,272.00 262.00,272.00 262.00,272.00
             262.00,272.00 263.00,273.00 263.00,273.00
             263.00,273.00 263.00,272.00 263.00,272.00 Z
           M 62.00,275.00
           C 62.00,275.00 61.00,275.00 61.00,275.00
             61.00,275.00 62.00,276.00 62.00,276.00
             62.00,276.00 62.00,275.00 62.00,275.00 Z
           M 63.00,276.00
           C 63.00,276.00 62.00,276.00 62.00,276.00
             62.00,276.00 63.00,277.00 63.00,277.00
             63.00,277.00 63.00,276.00 63.00,276.00 Z
           M 258.00,276.00
           C 258.00,276.00 257.00,276.00 257.00,276.00
             257.00,276.00 258.00,277.00 258.00,277.00
             258.00,277.00 258.00,276.00 258.00,276.00 Z
           M 64.00,277.00
           C 64.00,277.00 63.00,277.00 63.00,277.00
             63.00,277.00 64.00,278.00 64.00,278.00
             64.00,278.00 64.00,277.00 64.00,277.00 Z
           M 257.00,277.00
           C 257.00,277.00 256.00,277.00 256.00,277.00
             256.00,277.00 257.00,278.00 257.00,278.00
             257.00,278.00 257.00,277.00 257.00,277.00 Z
           M 65.00,278.00
           C 65.00,278.00 64.00,278.00 64.00,278.00
             64.00,278.00 65.00,279.00 65.00,279.00
             65.00,279.00 65.00,278.00 65.00,278.00 Z
           M 68.00,280.00
           C 68.00,280.00 67.00,280.00 67.00,280.00
             67.00,280.00 68.00,281.00 68.00,281.00
             68.00,281.00 68.00,280.00 68.00,280.00 Z
           M 253.00,280.00
           C 253.00,280.00 252.00,280.00 252.00,280.00
             252.00,280.00 253.00,281.00 253.00,281.00
             253.00,281.00 253.00,280.00 253.00,280.00 Z
           M 69.00,281.00
           C 69.00,281.00 68.00,281.00 68.00,281.00
             68.00,281.00 69.00,282.00 69.00,282.00
             69.00,282.00 69.00,281.00 69.00,281.00 Z
           M 252.00,281.00
           C 252.00,281.00 251.00,281.00 251.00,281.00
             251.00,281.00 252.00,282.00 252.00,282.00
             252.00,282.00 252.00,281.00 252.00,281.00 Z
           M 72.00,283.00
           C 72.00,283.00 71.00,283.00 71.00,283.00
             71.00,283.00 72.00,284.00 72.00,284.00
             72.00,284.00 72.00,283.00 72.00,283.00 Z
           M 249.00,283.00
           C 249.00,283.00 248.00,283.00 248.00,283.00
             248.00,283.00 249.00,284.00 249.00,284.00
             249.00,284.00 249.00,283.00 249.00,283.00 Z
           M 73.00,284.00
           C 73.00,284.00 72.00,284.00 72.00,284.00
             72.00,284.00 73.00,285.00 73.00,285.00
             73.00,285.00 73.00,284.00 73.00,284.00 Z
           M 248.00,284.00
           C 248.00,284.00 247.00,284.00 247.00,284.00
             247.00,284.00 248.00,285.00 248.00,285.00
             248.00,285.00 248.00,284.00 248.00,284.00 Z
           M 75.00,285.00
           C 75.00,285.00 74.00,285.00 74.00,285.00
             74.00,285.00 75.00,286.00 75.00,286.00
             75.00,286.00 75.00,285.00 75.00,285.00 Z
           M 246.00,285.00
           C 246.00,285.00 245.00,285.00 245.00,285.00
             245.00,285.00 246.00,286.00 246.00,286.00
             246.00,286.00 246.00,285.00 246.00,285.00 Z
           M 76.00,286.00
           C 76.00,286.00 75.00,286.00 75.00,286.00
             75.00,286.00 76.00,287.00 76.00,287.00
             76.00,287.00 76.00,286.00 76.00,286.00 Z
           M 245.00,286.00
           C 245.00,286.00 244.00,286.00 244.00,286.00
             244.00,286.00 245.00,287.00 245.00,287.00
             245.00,287.00 245.00,286.00 245.00,286.00 Z
           M 78.00,287.00
           C 78.00,287.00 77.00,287.00 77.00,287.00
             77.00,287.00 78.00,288.00 78.00,288.00
             78.00,288.00 78.00,287.00 78.00,287.00 Z
           M 243.00,287.00
           C 243.00,287.00 242.00,287.00 242.00,287.00
             242.00,287.00 243.00,288.00 243.00,288.00
             243.00,288.00 243.00,287.00 243.00,287.00 Z
           M 79.00,288.00
           C 79.00,288.00 78.00,288.00 78.00,288.00
             78.00,288.00 79.00,289.00 79.00,289.00
             79.00,289.00 79.00,288.00 79.00,288.00 Z
           M 242.00,288.00
           C 242.00,288.00 241.00,288.00 241.00,288.00
             241.00,288.00 242.00,289.00 242.00,289.00
             242.00,289.00 242.00,288.00 242.00,288.00 Z
           M 81.00,289.00
           C 81.00,289.00 80.00,289.00 80.00,289.00
             80.00,289.00 81.00,290.00 81.00,290.00
             81.00,290.00 81.00,289.00 81.00,289.00 Z
           M 240.00,289.00
           C 240.00,289.00 239.00,289.00 239.00,289.00
             239.00,289.00 240.00,290.00 240.00,290.00
             240.00,290.00 240.00,289.00 240.00,289.00 Z
           M 84.00,291.00
           C 84.00,291.00 83.00,291.00 83.00,291.00
             83.00,291.00 84.00,292.00 84.00,292.00
             84.00,292.00 84.00,291.00 84.00,291.00 Z
           M 237.00,291.00
           C 237.00,291.00 236.00,291.00 236.00,291.00
             236.00,291.00 237.00,292.00 237.00,292.00
             237.00,292.00 237.00,291.00 237.00,291.00 Z
           M 86.00,292.00
           C 86.00,292.00 85.00,292.00 85.00,292.00
             85.00,292.00 86.00,293.00 86.00,293.00
             86.00,293.00 86.00,292.00 86.00,292.00 Z
           M 235.00,292.00
           C 235.00,292.00 234.00,292.00 234.00,292.00
             234.00,292.00 235.00,293.00 235.00,293.00
             235.00,293.00 235.00,292.00 235.00,292.00 Z
           M 88.00,293.00
           C 88.00,293.00 87.00,293.00 87.00,293.00
             87.00,293.00 88.00,294.00 88.00,294.00
             88.00,294.00 88.00,293.00 88.00,293.00 Z
           M 233.00,293.00
           C 233.00,293.00 232.00,293.00 232.00,293.00
             232.00,293.00 233.00,294.00 233.00,294.00
             233.00,294.00 233.00,293.00 233.00,293.00 Z
           M 90.00,294.00
           C 90.00,294.00 89.00,294.00 89.00,294.00
             89.00,294.00 90.00,295.00 90.00,295.00
             90.00,295.00 90.00,294.00 90.00,294.00 Z
           M 92.00,295.00
           C 92.00,295.00 91.00,295.00 91.00,295.00
             91.00,295.00 92.00,296.00 92.00,296.00
             92.00,296.00 92.00,295.00 92.00,295.00 Z
           M 96.00,297.00
           C 96.00,297.00 95.00,297.00 95.00,297.00
             95.00,297.00 96.00,298.00 96.00,298.00
             96.00,298.00 96.00,297.00 96.00,297.00 Z
           M 225.00,297.00
           C 225.00,297.00 224.00,297.00 224.00,297.00
             224.00,297.00 225.00,298.00 225.00,298.00
             225.00,298.00 225.00,297.00 225.00,297.00 Z
           M 98.00,298.00
           C 98.00,298.00 97.00,298.00 97.00,298.00
             97.00,298.00 98.00,299.00 98.00,299.00
             98.00,299.00 98.00,298.00 98.00,298.00 Z
           M 223.00,298.00
           C 223.00,298.00 222.00,298.00 222.00,298.00
             222.00,298.00 223.00,299.00 223.00,299.00
             223.00,299.00 223.00,298.00 223.00,298.00 Z
           M 100.00,299.00
           C 100.00,299.00 99.00,299.00 99.00,299.00
             99.00,299.00 100.00,300.00 100.00,300.00
             100.00,300.00 100.00,299.00 100.00,299.00 Z
           M 221.00,299.00
           C 221.00,299.00 220.00,299.00 220.00,299.00
             220.00,299.00 221.00,300.00 221.00,300.00
             221.00,300.00 221.00,299.00 221.00,299.00 Z
           M 102.00,300.00
           C 102.00,300.00 101.00,300.00 101.00,300.00
             101.00,300.00 102.00,301.00 102.00,301.00
             102.00,301.00 102.00,300.00 102.00,300.00 Z
           M 219.00,300.00
           C 219.00,300.00 218.00,300.00 218.00,300.00
             218.00,300.00 219.00,301.00 219.00,301.00
             219.00,301.00 219.00,300.00 219.00,300.00 Z
           M 105.00,301.00
           C 105.00,301.00 104.00,301.00 104.00,301.00
             104.00,301.00 105.00,302.00 105.00,302.00
             105.00,302.00 105.00,301.00 105.00,301.00 Z
           M 216.00,301.00
           C 216.00,301.00 215.00,301.00 215.00,301.00
             215.00,301.00 216.00,302.00 216.00,302.00
             216.00,302.00 216.00,301.00 216.00,301.00 Z
           M 214.00,302.00
           C 214.00,302.00 213.00,302.00 213.00,302.00
             213.00,302.00 214.00,303.00 214.00,303.00
             214.00,303.00 214.00,302.00 214.00,302.00 Z
           M 110.00,303.00
           C 110.00,303.00 109.00,303.00 109.00,303.00
             109.00,303.00 110.00,304.00 110.00,304.00
             110.00,304.00 110.00,303.00 110.00,303.00 Z
           M 211.00,303.00
           C 211.00,303.00 210.00,303.00 210.00,303.00
             210.00,303.00 211.00,304.00 211.00,304.00
             211.00,304.00 211.00,303.00 211.00,303.00 Z
           M 113.00,304.00
           C 113.00,304.00 112.00,304.00 112.00,304.00
             112.00,304.00 113.00,305.00 113.00,305.00
             113.00,305.00 113.00,304.00 113.00,304.00 Z
           M 208.00,304.00
           C 208.00,304.00 207.00,304.00 207.00,304.00
             207.00,304.00 208.00,305.00 208.00,305.00
             208.00,305.00 208.00,304.00 208.00,304.00 Z
           M 116.00,305.00
           C 116.00,305.00 115.00,305.00 115.00,305.00
             115.00,305.00 116.00,306.00 116.00,306.00
             116.00,306.00 116.00,305.00 116.00,305.00 Z
           M 205.00,305.00
           C 205.00,305.00 204.00,305.00 204.00,305.00
             204.00,305.00 205.00,306.00 205.00,306.00
             205.00,306.00 205.00,305.00 205.00,305.00 Z
           M 120.00,306.00
           C 120.00,306.00 119.00,306.00 119.00,306.00
             119.00,306.00 120.00,307.00 120.00,307.00
             120.00,307.00 120.00,306.00 120.00,306.00 Z
           M 201.00,306.00
           C 201.00,306.00 200.00,306.00 200.00,306.00
             200.00,306.00 201.00,307.00 201.00,307.00
             201.00,307.00 201.00,306.00 201.00,306.00 Z
           M 128.00,308.00
           C 128.00,308.00 127.00,308.00 127.00,308.00
             127.00,308.00 128.00,309.00 128.00,309.00
             128.00,309.00 128.00,308.00 128.00,308.00 Z
           M 193.00,308.00
           C 193.00,308.00 192.00,308.00 192.00,308.00
             192.00,308.00 193.00,309.00 193.00,309.00
             193.00,309.00 193.00,308.00 193.00,308.00 Z
           M 133.00,309.00
           C 133.00,309.00 132.00,309.00 132.00,309.00
             132.00,309.00 133.00,310.00 133.00,310.00
             133.00,310.00 133.00,309.00 133.00,309.00 Z
           M 188.00,309.00
           C 188.00,309.00 187.00,309.00 187.00,309.00
             187.00,309.00 188.00,310.00 188.00,310.00
             188.00,310.00 188.00,309.00 188.00,309.00 Z" />
</svg>
