<svg width="40" height="40" viewBox="0 0 40 40" fill="none" xmlns="http://www.w3.org/2000/svg">
<rect width="40" height="40" rx="20" fill="#F5AC37"/>
<path d="M21.2388 21.5819H27.0514C27.1753 21.5819 27.2338 21.5819 27.2428 21.4196C27.2903 20.8286 27.2903 20.2342 27.2428 19.6426C27.2428 19.5277 27.1857 19.4802 27.0611 19.4802H15.493C15.3498 19.4802 15.3113 19.5277 15.3113 19.6618V21.3625C15.3113 21.5819 15.3113 21.5819 15.5405 21.5819H21.2388ZM26.5937 17.4927C26.6102 17.4494 26.6102 17.4019 26.5937 17.3592C26.4966 17.148 26.3816 16.9464 26.2481 16.7573C26.0471 16.4339 25.8103 16.136 25.5405 15.8684C25.4131 15.7067 25.2658 15.5616 25.1006 15.4384C24.2732 14.7347 23.2895 14.2366 22.2321 13.9861C21.6987 13.8664 21.1535 13.8093 20.6069 13.8142H15.473C15.3299 13.8142 15.3106 13.8713 15.3106 13.9958V17.3874C15.3106 17.5305 15.3106 17.5691 15.4923 17.5691H26.5248C26.5248 17.5691 26.6205 17.5498 26.6398 17.4927H26.593H26.5937ZM26.5937 23.5695C26.4312 23.5516 26.2674 23.5516 26.1049 23.5695H15.5026C15.3595 23.5695 15.3113 23.5695 15.3113 23.7607V27.0767C15.3113 27.2294 15.3113 27.2679 15.5026 27.2679H20.3976C20.6317 27.2858 20.8657 27.2693 21.095 27.2205C21.8054 27.1696 22.5041 27.0155 23.1704 26.7616C23.4127 26.6777 23.6467 26.5683 23.8677 26.4369H23.9345C25.082 25.8404 26.0141 24.9034 26.6019 23.7531C26.6019 23.7531 26.6687 23.6087 26.5937 23.5708V23.5695ZM13.39 28.9872V28.9301V26.7038V25.9491V23.7036C13.39 23.5791 13.39 23.5605 13.2372 23.5605H11.1625C11.0475 23.5605 11 23.5605 11 23.4078V21.5923H13.2179C13.3418 21.5923 13.39 21.5923 13.39 21.4299V19.6336C13.39 19.5187 13.39 19.4905 13.2372 19.4905H11.1625C11.0475 19.4905 11 19.4905 11 19.3378V17.6564C11 17.5512 11 17.523 11.1528 17.523H13.2083C13.3515 17.523 13.39 17.523 13.39 17.3413V12.1913C13.39 12.0385 13.39 12 13.5814 12H20.7515C21.2719 12.0206 21.7888 12.0777 22.3003 12.172C23.3542 12.3667 24.3668 12.743 25.2926 13.2803C25.9067 13.6415 26.4718 14.0776 26.975 14.5799C27.3536 14.9727 27.6951 15.3978 27.9979 15.8505C28.2988 16.3094 28.5486 16.7999 28.7448 17.3124C28.7689 17.4459 28.897 17.536 29.0305 17.5133H30.7418C30.9614 17.5133 30.9614 17.5133 30.971 17.7238V19.291C30.971 19.4438 30.9139 19.4823 30.7604 19.4823H29.4408C29.3072 19.4823 29.2687 19.4823 29.2783 19.6543C29.3306 20.2363 29.3306 20.8204 29.2783 21.4024C29.2783 21.5647 29.2783 21.584 29.4607 21.584H30.9703C31.0371 21.67 30.9703 21.756 30.9703 21.8427C30.98 21.9534 30.98 22.0656 30.9703 22.1763V23.3328C30.9703 23.4952 30.9228 23.5433 30.779 23.5433H28.972C28.846 23.5192 28.7235 23.5997 28.6946 23.7249C28.2643 24.8429 27.576 25.8452 26.6866 26.6488C26.3617 26.9412 26.0203 27.2164 25.6637 27.4702C25.2809 27.6904 24.9085 27.9195 24.5162 28.1011C23.7941 28.4258 23.0369 28.6652 22.2597 28.8172C21.5217 28.9493 20.7735 29.0092 20.0225 28.9989H13.3873V28.9892L13.39 28.9872Z" fill="#FEFEFD"/>
</svg>
