<svg width="16" height="17" viewBox="0 0 16 17" fill="none" xmlns="http://www.w3.org/2000/svg">
<path d="M1 6.13331C1 4.45316 1 3.61308 1.32698 2.97134C1.6146 2.40686 2.07354 1.94791 2.63803 1.66029C3.27976 1.33331 4.11984 1.33331 5.8 1.33331H10.2C11.8802 1.33331 12.7202 1.33331 13.362 1.66029C13.9265 1.94791 14.3854 2.40686 14.673 2.97134C15 3.61308 15 4.45316 15 6.13331V10.5333C15 12.2135 15 13.0536 14.673 13.6953C14.3854 14.2598 13.9265 14.7187 13.362 15.0063C12.7202 15.3333 11.8802 15.3333 10.2 15.3333H5.8C4.11984 15.3333 3.27976 15.3333 2.63803 15.0063C2.07354 14.7187 1.6146 14.2598 1.32698 13.6953C1 13.0536 1 12.2135 1 10.5333V6.13331Z" fill="url(#paint0_linear_427_37366)"/>
<path d="M12.1376 5.34665C11.3807 4.70665 10.4725 4.38665 9.51376 4.33331L9.36239 4.49331C10.2202 4.70665 10.9771 5.13331 11.6835 5.71998C10.8257 5.23998 9.86697 4.91998 8.8578 4.81331C8.55505 4.75998 8.30275 4.75998 8 4.75998C7.69725 4.75998 7.44495 4.75998 7.1422 4.81331C6.13303 4.91998 5.17431 5.23998 4.31651 5.71998C5.02294 5.13331 5.77982 4.70665 6.63761 4.49331L6.48624 4.33331C5.52752 4.38665 4.61927 4.70665 3.86239 5.34665C3.00459 7.05331 2.55046 8.97331 2.5 10.9466C3.25688 11.8 4.31651 12.3333 5.42661 12.3333C5.42661 12.3333 5.77982 11.9066 6.03211 11.5333C5.37615 11.3733 4.77064 11 4.36697 10.4133C4.72018 10.6266 5.07339 10.84 5.42661 11C5.88073 11.2133 6.33486 11.32 6.78899 11.4266C7.19266 11.48 7.59633 11.5333 8 11.5333C8.40367 11.5333 8.80734 11.48 9.21101 11.4266C9.66514 11.32 10.1193 11.2133 10.5734 11C10.9266 10.84 11.2798 10.6266 11.633 10.4133C11.2294 11 10.6239 11.3733 9.96789 11.5333C10.2202 11.9066 10.5734 12.3333 10.5734 12.3333C11.6835 12.3333 12.7431 11.8 13.5 10.9466C13.4495 8.97331 12.9954 7.05331 12.1376 5.34665ZM6.33486 9.98665C5.83028 9.98665 5.37615 9.50665 5.37615 8.91998C5.37615 8.33331 5.83028 7.85331 6.33486 7.85331C6.83945 7.85331 7.29358 8.33331 7.29358 8.91998C7.29358 9.50665 6.83945 9.98665 6.33486 9.98665ZM9.66514 9.98665C9.16055 9.98665 8.70642 9.50665 8.70642 8.91998C8.70642 8.33331 9.16055 7.85331 9.66514 7.85331C10.1697 7.85331 10.6239 8.33331 10.6239 8.91998C10.6239 9.50665 10.1697 9.98665 9.66514 9.98665Z" fill="white"/>
<defs>
<linearGradient id="paint0_linear_427_37366" x1="8" y1="1.33331" x2="8" y2="15.3333" gradientUnits="userSpaceOnUse">
<stop stop-color="#687EC9"/>
<stop offset="1" stop-color="#5971C3"/>
</linearGradient>
</defs>
</svg>
