<svg width="24" height="24" viewBox="0 0 24 24" fill="none" xmlns="http://www.w3.org/2000/svg">
<path d="M24 11.9999C24 18.6274 18.6275 24 12.0001 24C5.37258 24 0 18.6274 0 11.9999C0 5.37255 5.37258 0 12.0001 0C18.6274 0 24 5.37255 24 11.9999Z" fill="#6281E3"/>
<path d="M11.9987 4.33002L11.9004 4.664V14.3553L11.9987 14.4534L16.4973 11.7943L11.9987 4.33002Z" fill="white"/>
<path d="M11.9986 4.33002L7.5 11.7943L11.9986 14.4534V9.74955V4.33002Z" fill="white"/>
<path d="M11.999 15.9171L11.9436 15.9846V19.4369L11.999 19.5986L16.5003 13.2593L11.999 15.9171Z" fill="white"/>
<path d="M11.9986 19.5986V15.9171L7.5 13.2593L11.9986 19.5986Z" fill="white"/>
</svg>
