<svg width="422" height="420" viewBox="0 0 422 420" fill="none" xmlns="http://www.w3.org/2000/svg">
<path d="M421.05 209.999C421.05 325.979 326.796 420 210.527 420C94.2555 420 0.000366211 325.979 0.000366211 209.999C0.000366211 94.0196 94.2555 0 210.527 0C326.795 0 421.05 94.0196 421.05 209.999" fill="#6281E3"/>
<path d="M210.501 76.3877L208.777 82.2323V251.83L210.501 253.547L289.424 207.012L210.501 76.3877Z" fill="white"/>
<path d="M210.501 76.3877L131.578 207.012L210.501 253.547V171.23V76.3877Z" fill="white"/>
<path d="M210.512 279.158L209.541 280.339V340.753L210.512 343.583L289.482 232.647L210.512 279.158Z" fill="white"/>
<path d="M210.501 343.584V279.158L131.578 232.647L210.501 343.584Z" fill="white"/>
</svg>
