<svg width="24" height="24" viewBox="0 0 24 24" fill="none" xmlns="http://www.w3.org/2000/svg">
<path d="M21.7212 12.7519C21.8568 11.0298 21.5305 9.30282 20.7762 7.74888C19.5275 8.93527 18.0515 9.85646 16.4372 10.4569C16.567 12.0502 16.4951 13.6536 16.2232 15.2289C18.1877 14.7341 20.049 13.8955 21.7212 12.7519ZM14.6342 15.5499C14.9536 14.0229 15.0653 12.4598 14.9662 10.9029C14.0142 11.1299 13.0212 11.2499 12.0002 11.2499C10.9792 11.2499 9.98619 11.1299 9.03419 10.9029C8.93743 12.4598 9.04908 14.0226 9.36619 15.5499C11.112 15.8175 12.8884 15.8175 14.6342 15.5499ZM9.77219 17.1189C11.2524 17.294 12.748 17.294 14.2282 17.1189C13.7195 18.7565 12.9685 20.3087 12.0002 21.7239C11.0319 20.3087 10.2809 18.7565 9.77219 17.1189ZM7.77719 15.2299C7.50383 13.654 7.43192 12.0499 7.56319 10.4559C5.94847 9.8556 4.47211 8.93441 3.22319 7.74788C2.469 9.30221 2.14313 11.0296 2.27919 12.7519C3.95133 13.8955 5.81271 14.7341 7.77719 15.2289V15.2299ZM21.3562 14.7519C20.8513 16.4628 19.8874 18.0028 18.5691 19.2045C17.2507 20.4063 15.6284 21.224 13.8782 21.5689C14.7547 20.0951 15.4237 18.5075 15.8662 16.8509C17.7957 16.4465 19.6487 15.7383 21.3562 14.7529V14.7519ZM2.64419 14.7519C4.32619 15.7229 6.17419 16.4399 8.13419 16.8509C8.57669 18.5075 9.24567 20.0951 10.1222 21.5689C8.37208 21.2241 6.74983 20.4066 5.43153 19.205C4.11323 18.0034 3.14924 16.4636 2.64419 14.7529V14.7519ZM13.8782 2.42988C16.3559 2.91689 18.5483 4.34571 19.9942 6.41588C18.9269 7.49426 17.6527 8.34595 16.2482 8.91988C15.8698 6.6277 15.0659 4.42652 13.8782 2.42988ZM12.0002 2.27588C13.4596 4.40798 14.4185 6.84224 14.8052 9.39688C13.9082 9.62688 12.9682 9.74988 12.0002 9.74988C11.0322 9.74988 10.0922 9.62788 9.19519 9.39688C9.58187 6.84223 10.5407 4.40796 12.0002 2.27588ZM10.1222 2.42988C8.93442 4.42651 8.13059 6.62769 7.75219 8.91988C6.34764 8.34598 5.0735 7.49428 4.00619 6.41588C5.45222 4.34601 7.64458 2.91754 10.1222 2.43088V2.42988Z" fill="#74777C"/>
</svg>
