<svg width="16" height="17" viewBox="0 0 16 17" fill="none" xmlns="http://www.w3.org/2000/svg">
<g clip-path="url(#clip0_427_37353)">
<path d="M16 8.33331C16 3.91503 12.4183 0.333313 8 0.333313C3.58172 0.333313 0 3.91503 0 8.33331C0 12.3263 2.92547 15.636 6.75 16.2361V10.6458H4.71875V8.33331H6.75V6.57081C6.75 4.56581 7.94438 3.45831 9.77172 3.45831C10.6467 3.45831 11.5625 3.61456 11.5625 3.61456V5.58331H10.5538C9.56 5.58331 9.25 6.20003 9.25 6.83331V8.33331H11.4688L11.1141 10.6458H9.25V16.2361C13.0745 15.636 16 12.3263 16 8.33331Z" fill="#1877F2"/>
<path d="M11.1143 10.6458L11.469 8.33331H9.25024V6.83331C9.25024 6.20066 9.56024 5.58331 10.554 5.58331H11.5627V3.61456C11.5627 3.61456 10.6473 3.45831 9.77196 3.45831C7.94462 3.45831 6.75024 4.56581 6.75024 6.57081V8.33331H4.71899V10.6458H6.75024V16.2361C7.57854 16.3657 8.42195 16.3657 9.25024 16.2361V10.6458H11.1143Z" fill="white"/>
</g>
<defs>
<clipPath id="clip0_427_37353">
<rect width="16" height="16" fill="white" transform="translate(0 0.333313)"/>
</clipPath>
</defs>
</svg>
