<svg width="24" height="24" viewBox="0 0 24 24" fill="none" xmlns="http://www.w3.org/2000/svg">
<path d="M9.59328 3.94011C9.68369 3.39765 10.153 3.00006 10.703 3.00006H13.2969C13.8469 3.00006 14.3162 3.39765 14.4066 3.94011L14.6201 5.22116C14.6825 5.5952 14.9325 5.90677 15.2642 6.09042C15.3384 6.13148 15.4117 6.17389 15.4841 6.21763C15.8092 6.4139 16.2045 6.47492 16.5601 6.34172L17.7769 5.88584C18.2919 5.6929 18.8709 5.90057 19.1459 6.37683L20.4429 8.62327C20.7179 9.09954 20.6082 9.70479 20.1836 10.0543L19.1793 10.8811C18.8868 11.1219 18.7418 11.4938 18.7488 11.8726C18.7496 11.915 18.75 11.9575 18.75 12.0001C18.75 12.0426 18.7496 12.0851 18.7488 12.1275C18.7418 12.5063 18.8868 12.8782 19.1793 13.119L20.1836 13.9458C20.6082 14.2953 20.7179 14.9006 20.4429 15.3768L19.1459 17.6233C18.8709 18.0995 18.2919 18.3072 17.7769 18.1143L16.5601 17.6584C16.2045 17.5252 15.8092 17.5862 15.4842 17.7825C15.4117 17.8262 15.3384 17.8686 15.2642 17.9097C14.9325 18.0933 14.6825 18.4049 14.6201 18.779L14.4066 20.06C14.3162 20.6025 13.8469 21.0001 13.2969 21.0001H10.703C10.153 21.0001 9.68369 20.6025 9.59328 20.06L9.37978 18.779C9.31743 18.4049 9.06746 18.0933 8.73569 17.9097C8.66152 17.8686 8.5882 17.8262 8.51577 17.7825C8.19073 17.5862 7.7954 17.5252 7.43984 17.6584L6.22297 18.1143C5.70798 18.3072 5.12899 18.0996 4.85402 17.6233L3.55703 15.3768C3.28206 14.9006 3.39172 14.2953 3.8163 13.9458L4.82065 13.119C5.11316 12.8782 5.25815 12.5063 5.25114 12.1275C5.25035 12.0851 5.24996 12.0426 5.24996 12.0001C5.24996 11.9575 5.25035 11.915 5.25114 11.8726C5.25815 11.4938 5.11315 11.122 4.82065 10.8812L3.8163 10.0543C3.39171 9.70481 3.28206 9.09955 3.55703 8.62329L4.85402 6.37685C5.12899 5.90058 5.70798 5.69292 6.22297 5.88585L7.43982 6.34173C7.79539 6.47493 8.19072 6.41391 8.51575 6.21764C8.58819 6.1739 8.66151 6.13148 8.73569 6.09042C9.06746 5.90677 9.31743 5.5952 9.37977 5.22116L9.59328 3.94011Z" stroke="#74777C" stroke-width="1.69" stroke-linecap="round" stroke-linejoin="round"/>
<path d="M14.9997 12C14.9997 13.6568 13.6566 15 11.9997 15C10.3429 15 8.99973 13.6568 8.99973 12C8.99973 10.3431 10.3429 8.99998 11.9997 8.99998C13.6566 8.99998 14.9997 10.3431 14.9997 12Z" stroke="#74777C" stroke-width="1.69" stroke-linecap="round" stroke-linejoin="round"/>
</svg>
