<svg width="16" height="17" viewBox="0 0 16 17" fill="none" xmlns="http://www.w3.org/2000/svg">
<g clip-path="url(#clip0_427_37338)">
<path d="M15.8439 8.51754C15.8439 7.97372 15.7998 7.42697 15.7057 6.89197H8.15991V9.97262H12.481C12.3017 10.9662 11.7256 11.8451 10.8819 12.4036V14.4025H13.4599C14.9738 13.0092 15.8439 10.9515 15.8439 8.51754Z" fill="#4285F4"/>
<path d="M8.15994 16.3339C10.3176 16.3339 12.1371 15.6255 13.4629 14.4026L10.8849 12.4037C10.1676 12.8917 9.24169 13.168 8.16288 13.168C6.07581 13.168 4.30621 11.76 3.67127 9.86688H1.01099V11.9275C2.36905 14.629 5.13516 16.3339 8.15994 16.3339Z" fill="#34A853"/>
<path d="M3.66849 9.86705C3.33338 8.87348 3.33338 7.79761 3.66849 6.80404V4.74341H1.01115C-0.123509 7.00393 -0.123509 9.66716 1.01115 11.9277L3.66849 9.86705Z" fill="#FBBC04"/>
<path d="M8.15994 3.49981C9.30048 3.48218 10.4028 3.91135 11.2288 4.69915L13.5128 2.41512C12.0666 1.05704 10.1471 0.310397 8.15994 0.333913C5.13515 0.333913 2.36905 2.03886 1.01099 4.74325L3.66833 6.80387C4.30033 4.90786 6.07287 3.49981 8.15994 3.49981Z" fill="#EA4335"/>
</g>
<defs>
<clipPath id="clip0_427_37338">
<rect width="15.9999" height="16" fill="white" transform="translate(0 0.333313)"/>
</clipPath>
</defs>
</svg>
