<?xml version="1.0" encoding="UTF-8" standalone="no"?>
<!DOCTYPE svg PUBLIC "-//W3C//DTD SVG 20010904//EN"
              "http://www.w3.org/TR/2001/REC-SVG-20010904/DTD/svg10.dtd">

<svg xmlns="http://www.w3.org/2000/svg"
     width="1.77778in" height="1.77778in"
     viewBox="0 0 160 160">
  <path id="Selection"
        fill="none" stroke="black" stroke-width="1"
        d="M 45.00,64.00
           C 45.00,51.81 43.10,36.79 49.36,26.00
             62.71,3.01 96.58,3.22 110.89,25.00
             118.09,35.95 116.00,51.31 116.00,64.00
             122.82,64.97 129.03,66.95 133.03,73.02
             138.28,80.97 137.00,91.84 137.00,101.00
             137.00,101.00 137.00,119.00 137.00,119.00
             137.00,131.20 137.56,145.70 123.00,150.20
             120.08,151.10 117.02,151.00 114.00,151.00
             114.00,151.00 47.00,151.00 47.00,151.00
             43.98,151.00 40.92,151.10 38.00,150.20
             23.44,145.70 24.00,131.20 24.00,119.00
             24.00,119.00 24.00,101.00 24.00,101.00
             24.00,91.84 22.72,80.97 27.97,73.02
             31.97,66.95 38.18,64.97 45.00,64.00 Z
           M 105.00,64.00
           C 105.00,54.70 106.49,39.92 101.78,32.00
             92.02,15.58 67.59,15.98 58.67,33.00
             54.67,40.62 56.00,55.18 56.00,64.00
             56.00,64.00 105.00,64.00 105.00,64.00 Z
           M 45.00,75.16
           C 35.90,77.60 35.04,82.51 35.00,91.00
             35.00,91.00 35.00,124.00 35.00,124.00
             35.02,128.00 35.02,132.55 37.56,135.89
             40.91,140.30 45.06,139.99 50.00,140.00
             50.00,140.00 113.00,140.00 113.00,140.00
             124.95,139.83 125.98,133.12 126.00,123.00
             126.00,123.00 126.00,91.00 126.00,91.00
             125.97,85.32 125.73,79.50 119.96,76.57
             115.33,74.22 102.65,75.00 97.00,75.16
             97.00,75.16 45.00,75.16 45.00,75.16 Z" />
</svg>
