<?xml version="1.0" encoding="UTF-8" standalone="no"?>
<!DOCTYPE svg PUBLIC "-//W3C//DTD SVG 20010904//EN"
              "http://www.w3.org/TR/2001/REC-SVG-20010904/DTD/svg10.dtd">

<svg xmlns="http://www.w3.org/2000/svg"
     width="3.55556in" height="3.55556in"
     viewBox="0 0 320 320">
<rect x="10" y="10" width="300" height="300" rx="200" stroke="#white" fill-opacity="0.042"/>
<rect x="10" y="10" width="300" height="300" rx="200" fill="#2D4EA2" fill-opacity="0.042"/>
<path id="Selection #2"
        fill="#2D4EA2"
        d="M 125.00,144.00
           C 124.16,141.05 124.05,140.06 124.00,137.00
             123.84,125.91 124.02,112.45 130.47,103.00
             143.73,83.56 173.89,83.64 188.79,101.00
             196.67,110.19 199.25,132.55 196.00,144.00
             199.13,144.15 200.99,144.31 204.00,145.39
             216.46,149.84 218.45,164.32 217.96,176.00
             217.96,176.00 217.00,187.00 217.00,187.00
             216.88,197.47 218.87,215.35 213.03,223.96
             208.74,230.28 202.97,230.99 196.00,231.00
             196.00,231.00 125.00,231.00 125.00,231.00
             117.59,230.99 111.56,229.93 107.36,222.96
             102.31,214.56 104.11,197.03 104.00,187.00
             104.00,187.00 103.01,175.00 103.01,175.00
             102.75,163.41 104.59,149.82 117.00,145.39
             120.01,144.31 121.87,144.15 125.00,144.00 Z
           M 185.00,144.00
           C 185.00,134.21 185.95,119.38 180.44,111.04
             171.08,96.86 148.31,96.94 139.90,112.00
             135.19,120.45 136.00,134.43 136.00,144.00
             136.00,144.00 185.00,144.00 185.00,144.00 Z
           M 182.00,155.28
           C 182.00,155.28 131.00,156.00 131.00,156.00
             126.49,156.01 121.81,155.81 118.43,159.39
             115.85,162.13 115.90,166.44 115.21,170.00
             115.21,170.00 115.21,200.00 115.21,200.00
             115.06,204.82 115.48,213.22 119.23,216.57
             122.50,219.50 128.77,219.95 133.00,220.00
             133.00,220.00 185.00,220.00 185.00,220.00
             190.19,219.99 198.90,219.91 202.57,215.77
             205.37,212.62 205.95,202.33 206.00,198.00
             206.00,198.00 205.42,169.00 205.42,169.00
             204.87,165.21 204.68,161.39 201.61,158.65
             197.54,155.02 187.25,154.80 182.00,155.28 Z" />
  
</svg>


