<svg width="21" height="20" viewBox="0 0 21 20" fill="none" xmlns="http://www.w3.org/2000/svg">
<path fill-rule="evenodd" clip-rule="evenodd" d="M1.75 5C1.75 4.50272 1.94754 4.02581 2.29917 3.67417C2.65081 3.32254 3.12772 3.125 3.625 3.125H17.375C17.8723 3.125 18.3492 3.32254 18.7008 3.67417C19.0525 4.02581 19.25 4.50272 19.25 5V15C19.25 15.4973 19.0525 15.9742 18.7008 16.3258C18.3492 16.6775 17.8723 16.875 17.375 16.875H3.625C3.12772 16.875 2.65081 16.6775 2.29917 16.3258C1.94754 15.9742 1.75 15.4973 1.75 15V5ZM3 13.3833V15C3 15.345 3.28 15.625 3.625 15.625H17.375C17.5408 15.625 17.6997 15.5592 17.8169 15.4419C17.9342 15.3247 18 15.1658 18 15V13.3833L15.7583 11.1425C15.524 10.9084 15.2063 10.7769 14.875 10.7769C14.5437 10.7769 14.226 10.9084 13.9917 11.1425L13.2583 11.875L14.0667 12.6833C14.1281 12.7406 14.1773 12.8096 14.2115 12.8862C14.2456 12.9629 14.264 13.0456 14.2655 13.1296C14.267 13.2135 14.2515 13.2968 14.2201 13.3747C14.1887 13.4525 14.1419 13.5232 14.0825 13.5825C14.0232 13.6419 13.9525 13.6887 13.8747 13.7201C13.7968 13.7515 13.7135 13.767 13.6296 13.7655C13.5456 13.764 13.4629 13.7456 13.3862 13.7115C13.3096 13.6773 13.2406 13.6281 13.1833 13.5667L8.88333 9.2675C8.64896 9.03342 8.33125 8.90193 8 8.90193C7.66875 8.90193 7.35104 9.03342 7.11667 9.2675L3 13.3842V13.3833ZM11.4375 6.875C11.4375 6.62636 11.5363 6.3879 11.7121 6.21209C11.8879 6.03627 12.1264 5.9375 12.375 5.9375C12.6236 5.9375 12.8621 6.03627 13.0379 6.21209C13.2137 6.3879 13.3125 6.62636 13.3125 6.875C13.3125 7.12364 13.2137 7.3621 13.0379 7.53791C12.8621 7.71373 12.6236 7.8125 12.375 7.8125C12.1264 7.8125 11.8879 7.71373 11.7121 7.53791C11.5363 7.3621 11.4375 7.12364 11.4375 6.875Z" fill="#2B2F43"/>
</svg>
