<svg width="64" height="64" viewBox="0 0 64 64" fill="none" xmlns="http://www.w3.org/2000/svg">
<path d="M23.9995 12L23.9992 13.5C24.1079 13.5 24.2135 13.5354 24.3003 13.6009C24.387 13.6663 24.4501 13.7582 24.4799 13.8627L24.4799 13.8627L26.6479 21.4519C26.6479 21.452 26.6479 21.452 26.6479 21.452C27.1847 23.3316 28.1918 25.0433 29.574 26.4255C30.9562 27.8077 32.6679 28.8148 34.5475 29.3516C34.5475 29.3516 34.5476 29.3517 34.5476 29.3517L42.1358 31.5193C42.2402 31.5492 42.332 31.6123 42.3974 31.699C42.4627 31.7858 42.4981 31.8914 42.4981 32C42.4981 32.1086 42.4627 32.2142 42.3974 32.301C42.332 32.3877 42.2402 32.4508 42.1358 32.4807L34.5476 34.6483C32.668 35.1852 30.9562 36.1922 29.574 37.5745C28.1918 38.9567 27.1847 40.6685 26.6479 42.5481L24.4802 50.1362C24.4503 50.2406 24.3872 50.3325 24.3005 50.3978C24.2138 50.4632 24.1081 50.4986 23.9995 50.4986C23.8909 50.4986 23.7853 50.4632 23.6986 50.3978C23.6119 50.3325 23.5488 50.2406 23.5189 50.1362L21.3512 42.5481C20.8144 40.6685 19.8073 38.9567 18.4251 37.5745C17.0428 36.1922 15.3311 35.1852 13.4515 34.6483L5.86329 32.4807C5.75889 32.4508 5.66706 32.3877 5.6017 32.301C5.53633 32.2142 5.50098 32.1086 5.50098 32C5.50098 31.8914 5.53633 31.7858 5.6017 31.699C5.66706 31.6123 5.75889 31.5492 5.86328 31.5193L13.4515 29.3517C15.3311 28.8148 17.0428 27.8078 18.4251 26.4255C19.8073 25.0433 20.8144 23.3316 21.3512 21.452C21.3512 21.452 21.3512 21.452 21.3512 21.4519L23.5192 13.8627L23.5192 13.8627C23.549 13.7582 23.6121 13.6663 23.6988 13.6009C23.7855 13.5354 23.8912 13.5 23.9998 13.5L23.9995 12ZM23.9995 12C23.565 12.0001 23.1423 12.1417 22.7953 12.4035C22.4484 12.6652 22.1962 13.0328 22.0769 13.4507L25.2037 12.4035C24.8568 12.1417 24.4341 12.0001 23.9995 12ZM45.5268 44.9999L45.5257 44.9966L44.4751 41.842C44.4419 41.7424 44.3782 41.6557 44.293 41.5943C44.2079 41.533 44.1056 41.5 44.0007 41.5L45.5268 44.9999ZM45.5268 44.9999C46.0753 46.6343 47.357 47.9264 49.0035 48.474L52.1541 49.526C52.1544 49.5261 52.1547 49.5262 52.155 49.5263C52.2539 49.5597 52.34 49.6233 52.4009 49.7081C52.4621 49.7931 52.495 49.8952 52.495 50C52.495 50.1048 52.4621 50.2069 52.4009 50.2919C52.34 50.3767 52.2539 50.4403 52.155 50.4737C52.1547 50.4738 52.1544 50.4739 52.1541 50.474L49.0018 51.5265L48.9997 51.5273C47.3652 52.0757 46.0731 53.3575 45.5255 55.0039L44.4735 58.1546C44.4734 58.1549 44.4733 58.1552 44.4732 58.1555C44.4398 58.2544 44.3763 58.3404 44.2915 58.4014C44.2064 58.4625 44.1043 58.4955 43.9995 58.4955C43.8948 58.4955 43.7927 58.4625 43.7076 58.4014C43.6228 58.3404 43.5592 58.2544 43.5258 58.1555C43.5257 58.1552 43.5256 58.1549 43.5255 58.1546L42.4731 55.0025C42.203 54.1932 41.7483 53.4578 41.145 52.8545C40.5418 52.2513 39.8065 51.7966 38.9973 51.5266C38.9972 51.5265 38.9971 51.5265 38.9971 51.5265L35.8449 50.474C35.8447 50.4739 35.8444 50.4738 35.8441 50.4737C35.7451 50.4403 35.6591 50.3767 35.5981 50.2919C35.537 50.2069 35.5041 50.1048 35.5041 50C35.5041 49.8952 35.537 49.7931 35.5981 49.7081C35.6591 49.6233 35.7451 49.5597 35.8441 49.5263C35.8444 49.5262 35.8447 49.5261 35.8449 49.526L38.9973 48.4734L38.9994 48.4727M45.5268 44.9999L38.9994 48.4727M38.9994 48.4727C40.6339 47.9243 41.9259 46.6425 42.4735 44.9961L43.5263 41.8431L43.5267 41.842M38.9994 48.4727L43.5267 41.842M43.5267 41.842C43.5598 41.7425 43.6234 41.6559 43.7085 41.5945M43.5267 41.842L43.7085 41.5945M43.7085 41.5945C43.7935 41.5332 43.8956 41.5001 44.0004 41.5L43.7085 41.5945ZM47.9987 5.5L48.0004 5.5C48.1119 5.49994 48.2203 5.53718 48.3082 5.60579C48.3959 5.67423 48.4583 5.76995 48.4855 5.87781C48.4856 5.87809 48.4856 5.87837 48.4857 5.87866L49.1733 8.63982L49.174 8.64259C49.938 11.6855 52.314 14.0616 55.3569 14.8255L55.3597 14.8262L58.1224 15.5142L58.1242 15.5147C58.2326 15.5415 58.329 15.6039 58.3978 15.6919L59.5791 14.7675L58.3978 15.6919C58.4666 15.7798 58.504 15.8883 58.504 16C58.504 16.1117 58.4666 16.2202 58.3978 16.3081C58.329 16.3961 58.2326 16.4585 58.1242 16.4853L58.1224 16.4858L55.3597 17.1738L55.3569 17.1745C52.314 17.9384 49.938 20.3145 49.174 23.3574L49.1733 23.3602L48.4853 26.1229L48.4849 26.1247C48.458 26.2331 48.3956 26.3294 48.3077 26.3982L49.2321 27.5795L48.3077 26.3982C48.2197 26.4671 48.1112 26.5045 47.9995 26.5045C47.8878 26.5045 47.7794 26.4671 47.6914 26.3982L46.767 27.5795L47.6914 26.3982C47.6034 26.3294 47.5411 26.2331 47.5142 26.1247L47.5137 26.1229L46.8257 23.3602L46.8254 23.3589C46.4518 21.8643 45.679 20.4993 44.5896 19.4099C43.5002 18.3206 42.1353 17.5478 40.6407 17.1741L40.6394 17.1738L37.8767 16.4858L37.8748 16.4853C37.7664 16.4585 37.6701 16.3961 37.6013 16.3081C37.5325 16.2202 37.4951 16.1117 37.4951 16C37.4951 15.8883 37.5325 15.7798 37.6013 15.6919C37.6701 15.6039 37.7664 15.5415 37.8748 15.5147L37.8767 15.5142L40.6394 14.8262L40.6407 14.8259C42.1353 14.4522 43.5002 13.6794 44.5896 12.5901C45.679 11.5007 46.4518 10.1357 46.8254 8.64112L46.8257 8.63981L47.5134 5.87867C47.5404 5.77046 47.6029 5.67441 47.6909 5.60579C47.7788 5.53718 47.8872 5.49994 47.9987 5.5Z" stroke="#F2F6F7" stroke-width="3"/>
</svg>
