<svg width="42" height="42" viewBox="0 0 42 42" fill="none" xmlns="http://www.w3.org/2000/svg">
<rect x="0.5" y="0.5" width="41" height="41" rx="20.5" fill="#2D4EA2" fill-opacity="0.042"/>
<path d="M17.9999 13.5L17.9998 14.1C18.0324 14.1 18.0641 14.1106 18.0901 14.1303C18.1162 14.1499 18.1351 14.1775 18.144 14.2088L18.144 14.2088L18.957 17.0548C18.957 17.0548 18.957 17.0548 18.957 17.0548C19.1601 17.7658 19.541 18.4133 20.0639 18.9361C20.5867 19.4589 21.2342 19.8399 21.9451 20.0429C21.9452 20.0429 21.9452 20.0429 21.9452 20.0429L24.7907 20.8558C24.7908 20.8558 24.7908 20.8558 24.7909 20.8559C24.8222 20.8649 24.8496 20.8837 24.8692 20.9097C24.8888 20.9357 24.8994 20.9674 24.8994 21C24.8994 21.0326 24.8888 21.0643 24.8692 21.0903C24.8496 21.1163 24.8222 21.1351 24.7909 21.1441C24.7908 21.1442 24.7908 21.1442 24.7907 21.1442L21.9452 21.9571C21.9452 21.9571 21.9452 21.9571 21.9451 21.9571C21.2342 22.1601 20.5867 22.5411 20.0639 23.0639C19.541 23.5867 19.1601 24.2342 18.957 24.9452C18.957 24.9452 18.957 24.9452 18.957 24.9452L18.1441 27.7908C18.1441 27.7909 18.1441 27.791 18.1441 27.7911C18.1351 27.8223 18.1162 27.8497 18.0902 27.8692C18.0642 27.8889 18.0325 27.8995 17.9999 27.8995C17.9674 27.8995 17.9357 27.8889 17.9097 27.8692C17.8837 27.8497 17.8648 27.8223 17.8558 27.7911C17.8558 27.791 17.8558 27.7909 17.8557 27.7908L17.0429 24.9452C16.8398 24.2342 16.4589 23.5868 15.936 23.0639C15.4132 22.5411 14.7657 22.1601 14.0548 21.9571C14.0547 21.9571 14.0547 21.9571 14.0547 21.9571L11.2092 21.1442C11.2091 21.1442 11.2091 21.1442 11.209 21.1442C11.1778 21.1352 11.1503 21.1163 11.1307 21.0903C11.1111 21.0643 11.1005 21.0326 11.1005 21C11.1005 20.9674 11.1111 20.9357 11.1307 20.9097C11.1503 20.8837 11.1778 20.8648 11.209 20.8558C11.2091 20.8558 11.2091 20.8558 11.2092 20.8558L14.0547 20.0429C14.0547 20.0429 14.0547 20.0429 14.0548 20.0429C14.7657 19.8399 15.4132 19.4589 15.936 18.9361C16.4589 18.4132 16.8398 17.7658 17.0429 17.0548L17.8559 14.2088L17.8559 14.2088C17.8648 14.1775 17.8837 14.1499 17.9098 14.1303C17.9358 14.1106 17.9675 14.1 18.0001 14.1L17.9999 13.5ZM17.9999 13.5C18.1629 13.5 18.3214 13.5531 18.4515 13.6513C18.5816 13.7495 18.6762 13.8873 18.7209 14.044L19.5339 16.89L17.2789 14.044C17.3237 13.8873 17.4183 13.7495 17.5484 13.6513C17.6785 13.5531 17.837 13.5 17.9999 13.5ZM26.0371 25.8869L26.0367 25.8856L25.6427 24.7026C25.6327 24.6727 25.6136 24.6467 25.5881 24.6283C25.5625 24.6099 25.5318 24.6 25.5003 24.6C25.4689 24.6 25.4382 24.61 25.4128 24.6284C25.3872 24.6468 25.3681 24.6727 25.3582 24.7026L25.3581 24.703L24.9633 25.8854C24.9633 25.8855 24.9632 25.8856 24.9632 25.8857L24.9631 25.886L24.3939 25.696L26.0371 25.8869ZM26.0371 25.8869C26.2465 26.5108 26.7357 27.0041 27.3643 27.2132L26.0371 25.8869ZM28.546 27.8922C28.5758 27.8822 28.6017 27.8631 28.62 27.8376C28.6384 27.8121 28.6482 27.7814 28.6482 27.75C28.6482 27.7186 28.6384 27.6879 28.62 27.6624C28.6017 27.6369 28.5758 27.6178 28.546 27.6078L27.3646 27.2133L28.546 27.8922ZM28.546 27.8922L27.3639 28.2869L27.3631 28.2872C26.7392 28.4965 26.2459 28.9858 26.0367 29.6143L26.0368 29.614L26.606 29.804L26.0366 29.6146L28.546 27.8922ZM25.6421 30.7963C25.632 30.826 25.613 30.8518 25.5875 30.8701C25.562 30.8884 25.5314 30.8983 25.4999 30.8983C25.4685 30.8983 25.4379 30.8884 25.4124 30.8701C25.3869 30.8518 25.3679 30.826 25.3578 30.7963L25.3581 30.797L24.7889 30.987M25.6421 30.7963L22.4539 27.6078L22.2629 27.039M25.6421 30.7963L25.6418 30.797L26.2109 30.987M25.6421 30.7963L23.4459 26.644L22.2629 27.039M24.7889 30.987L25.3577 30.796L24.9631 29.6141L24.3939 29.804M24.7889 30.987L24.3939 29.804M24.7889 30.987C24.839 31.136 24.9345 31.2655 25.0621 31.3572C25.1896 31.4489 25.3428 31.4983 25.4999 31.4983C25.6571 31.4983 25.8103 31.4489 25.9378 31.3572C26.0654 31.2655 26.1609 31.136 26.2109 30.987M24.3939 29.804L24.9631 29.614C24.8599 29.305 24.6863 29.0243 24.456 28.7939C24.2257 28.5636 23.9449 28.39 23.6359 28.2869M24.3939 29.804C24.3203 29.5833 24.1963 29.3827 24.0318 29.2182C23.8672 29.0537 23.6667 28.9297 23.4459 28.856M23.6359 28.2869L22.4539 27.8922L22.2629 28.461M23.6359 28.2869L23.636 28.2869L23.4459 28.856M23.6359 28.2869L23.4459 28.856M22.2629 28.461L22.453 27.8919L22.4537 27.8921C22.424 27.8821 22.3982 27.863 22.3799 27.8376C22.3615 27.8121 22.3517 27.7814 22.3517 27.75C22.3517 27.7186 22.3615 27.6879 22.3799 27.6624C22.3982 27.637 22.424 27.6179 22.4537 27.6079L22.453 27.6081L22.2629 27.039M22.2629 28.461C22.114 28.411 21.9845 28.3155 21.8927 28.1879C21.801 28.0603 21.7517 27.9071 21.7517 27.75C21.7517 27.5929 21.801 27.4397 21.8927 27.3121C21.9845 27.1845 22.114 27.089 22.2629 27.039M22.2629 28.461L23.4459 28.856M26.2109 30.987L25.6421 30.796L26.2109 30.987ZM27.4037 12.249L27.404 12.2501C27.6939 13.4046 28.5953 14.3061 29.7498 14.5959L29.751 14.5962L30.787 14.8542L30.7877 14.8544C30.8202 14.8625 30.8491 14.8812 30.8698 14.9076L31.3423 14.5378L30.8698 14.9076C30.8904 14.9339 30.9016 14.9665 30.9016 15C30.9016 15.0335 30.8904 15.0661 30.8698 15.0924L31.3423 15.4622L30.8698 15.0924C30.8491 15.1188 30.8202 15.1375 30.7877 15.1456L30.787 15.1458L29.751 15.4038L29.7498 15.4041C28.5953 15.6939 27.6939 16.5954 27.404 17.7499L27.4037 17.751L27.1457 18.787L27.1456 18.7877C27.1375 18.8203 27.1188 18.8492 27.0924 18.8698C27.066 18.8905 27.0335 18.9017 27 18.9017C26.9664 18.9017 26.9339 18.8905 26.9075 18.8698C26.8811 18.8492 26.8624 18.8203 26.8543 18.7877L26.8542 18.787L26.5962 17.751L26.596 17.7505C26.4543 17.1834 26.1611 16.6655 25.7477 16.2522C25.3344 15.8389 24.8165 15.5457 24.2495 15.4039L24.2489 15.4038L23.2129 15.1458L23.2122 15.1456C23.1797 15.1375 23.1508 15.1188 23.1301 15.0924L22.6576 15.4622L23.1301 15.0924C23.1095 15.066 23.0983 15.0335 23.0983 15C23.0983 14.9665 23.1095 14.934 23.1301 14.9076L22.6736 14.5503L23.1301 14.9076C23.1508 14.8812 23.1797 14.8625 23.2122 14.8544L23.2129 14.8542L24.2489 14.5962L24.2495 14.5961C24.8165 14.4543 25.3344 14.1611 25.7477 13.7478C26.1611 13.3345 26.4543 12.8166 26.596 12.2495L26.5962 12.249L26.854 11.2136C26.8621 11.1811 26.8809 11.1523 26.9073 11.1317L26.5382 10.6587L26.9073 11.1317C26.9336 11.1112 26.9662 11.1 26.9996 11.1L27.0003 11.1C27.0337 11.1 27.0663 11.1112 27.0926 11.1317C27.1189 11.1522 27.1376 11.1809 27.1458 11.2131C27.1458 11.2133 27.1458 11.2134 27.1459 11.2136L27.4037 12.249Z" stroke="#2D4EA2" stroke-width="1.2"/>
<rect x="0.5" y="0.5" width="41" height="41" rx="20.5" stroke="#E4E7EC"/>
</svg>
