<svg width="65" height="64" viewBox="0 0 65 64" fill="none" xmlns="http://www.w3.org/2000/svg">
<g clip-path="url(#clip0_811_34885)">
<path d="M32.3334 64C50.0065 64 64.3334 49.6731 64.3334 32C64.3334 14.3269 50.0065 0 32.3334 0C14.6603 0 0.333374 14.3269 0.333374 32C0.333374 49.6731 14.6603 64 32.3334 64Z" fill="#6F41D8"/>
<path d="M42.5175 25.386C41.7795 24.956 40.8215 24.956 40.0095 25.386L34.2515 28.694L30.3415 30.85L24.5835 34.156C23.8455 34.588 22.8875 34.588 22.0755 34.156L17.4995 31.568C16.7615 31.138 16.2455 30.348 16.2455 29.484V24.38C16.2455 23.518 16.6875 22.728 17.4995 22.296L21.9995 19.78C22.7395 19.348 23.6995 19.348 24.5115 19.78L29.0115 22.296C29.7515 22.728 30.2675 23.518 30.2675 24.38V27.688L34.1775 25.458V22.152C34.1818 21.7226 34.0669 21.3004 33.8455 20.9325C33.6241 20.5646 33.3049 20.2653 32.9235 20.068L24.5835 15.324C23.8455 14.892 22.8875 14.892 22.0755 15.324L13.5875 20.068C13.2061 20.2653 12.8869 20.5646 12.6655 20.9325C12.4441 21.3004 12.3292 21.7226 12.3335 22.152V31.712C12.3335 32.576 12.7755 33.366 13.5875 33.798L22.0755 38.542C22.8135 38.972 23.7735 38.972 24.5835 38.542L30.3415 35.306L34.2515 33.078L40.0095 29.844C40.7475 29.412 41.7055 29.412 42.5175 29.844L47.0195 32.36C47.7595 32.79 48.2735 33.58 48.2735 34.444V39.548C48.2735 40.41 47.8335 41.2 47.0195 41.632L42.5195 44.22C41.7795 44.652 40.8195 44.652 40.0095 44.22L35.5075 41.704C34.7675 41.272 34.2515 40.482 34.2515 39.62V36.312L30.3415 38.542V41.848C30.3415 42.71 30.7835 43.502 31.5955 43.932L40.0835 48.676C40.8215 49.108 41.7795 49.108 42.5915 48.676L51.0795 43.932C51.8175 43.502 52.3335 42.712 52.3335 41.848V32.288C52.3378 31.8586 52.2229 31.4364 52.0015 31.0685C51.7801 30.7006 51.4609 30.4013 51.0795 30.204L42.5195 25.386H42.5175Z" fill="white"/>
</g>
<defs>
<clipPath id="clip0_811_34885">
<rect width="64" height="64" fill="white" transform="translate(0.333374)"/>
</clipPath>
</defs>
</svg>
