<svg width="42" height="42" viewBox="0 0 42 42" fill="none" xmlns="http://www.w3.org/2000/svg">
<rect x="0.5" y="0.5" width="41" height="41" rx="20.5" fill="#2D4EA2" fill-opacity="0.042"/>
<path fill-rule="evenodd" clip-rule="evenodd" d="M21 14.2501C22.213 14.2501 23.415 14.2961 24.605 14.3851C25.3845 14.442 26.1174 14.7774 26.67 15.33C27.2226 15.8827 27.5581 16.6156 27.615 17.3951C27.659 17.9781 27.692 18.5651 27.715 19.1541L26.03 17.4701C25.9614 17.3964 25.8786 17.3373 25.7866 17.2963C25.6946 17.2553 25.5953 17.2332 25.4946 17.2315C25.3938 17.2297 25.2938 17.2482 25.2004 17.2859C25.107 17.3236 25.0222 17.3798 24.951 17.451C24.8798 17.5222 24.8236 17.6071 24.7859 17.7005C24.7482 17.7938 24.7297 17.8939 24.7314 17.9946C24.7332 18.0953 24.7553 18.1946 24.7962 18.2866C24.8372 18.3786 24.8963 18.4614 24.97 18.53L27.97 21.5301C28.1107 21.6705 28.3013 21.7494 28.5 21.7494C28.6988 21.7494 28.8894 21.6705 29.03 21.5301L32.03 18.53C32.1625 18.3879 32.2346 18.1998 32.2312 18.0055C32.2278 17.8112 32.1491 17.6258 32.0117 17.4884C31.8742 17.351 31.6889 17.2723 31.4946 17.2689C31.3003 17.2654 31.1122 17.3376 30.97 17.4701L29.218 19.221C29.195 18.571 29.158 17.925 29.11 17.282C29.0259 16.1451 28.5361 15.0762 27.73 14.2701C26.9239 13.4639 25.855 12.9742 24.718 12.8901C22.2429 12.7033 19.7572 12.7033 17.282 12.8901C16.1451 12.9742 15.0762 13.4639 14.2701 14.2701C13.4639 15.0762 12.9742 16.1451 12.89 17.282C12.873 17.506 12.857 17.7291 12.844 17.9541C12.8364 18.0532 12.8486 18.1529 12.8799 18.2473C12.9111 18.3417 12.9609 18.429 13.0262 18.504C13.0915 18.579 13.1711 18.6403 13.2603 18.6842C13.3495 18.7282 13.4466 18.754 13.5458 18.7601C13.6451 18.7662 13.7446 18.7525 13.8385 18.7198C13.9324 18.6871 14.0189 18.636 14.0929 18.5696C14.1669 18.5031 14.227 18.4226 14.2696 18.3327C14.3122 18.2429 14.3365 18.1454 14.341 18.046C14.354 17.829 14.369 17.6121 14.385 17.3951C14.442 16.6156 14.7774 15.8827 15.33 15.33C15.8826 14.7774 16.6156 14.442 17.395 14.3851C18.585 14.2951 19.787 14.2501 21 14.2501V14.2501ZM14.03 20.4701C13.8894 20.3296 13.6988 20.2507 13.5 20.2507C13.3013 20.2507 13.1107 20.3296 12.97 20.4701L9.97003 23.4701C9.89634 23.5387 9.83724 23.6215 9.79625 23.7135C9.75526 23.8055 9.73322 23.9048 9.73144 24.0055C9.72966 24.1062 9.74819 24.2063 9.78591 24.2996C9.82363 24.393 9.87977 24.4779 9.95099 24.5491C10.0222 24.6203 10.107 24.6765 10.2004 24.7142C10.2938 24.7519 10.3939 24.7704 10.4946 24.7686C10.5953 24.7669 10.6946 24.7448 10.7866 24.7038C10.8786 24.6628 10.9614 24.6037 11.03 24.5301L12.782 22.7791C12.805 23.4291 12.842 24.0751 12.89 24.7181C12.9742 25.855 13.4639 26.9239 14.2701 27.73C15.0762 28.5362 16.1451 29.0259 17.282 29.1101C19.7572 29.2968 22.2429 29.2968 24.718 29.1101C25.855 29.0259 26.9239 28.5362 27.73 27.73C28.5361 26.9239 29.0259 25.855 29.11 24.7181C29.127 24.4951 29.142 24.2711 29.156 24.0461C29.1651 23.8493 29.0964 23.6569 28.9649 23.5104C28.8333 23.3639 28.6494 23.275 28.4528 23.2629C28.2563 23.2508 28.0629 23.3165 27.9143 23.4459C27.7658 23.5752 27.6741 23.7577 27.659 23.9541C27.646 24.1711 27.631 24.3881 27.615 24.6051C27.5581 25.3845 27.2226 26.1174 26.67 26.6701C26.1174 27.2227 25.3845 27.5581 24.605 27.6151C22.2051 27.796 19.795 27.796 17.395 27.6151C16.6156 27.5581 15.8826 27.2227 15.33 26.6701C14.7774 26.1174 14.442 25.3845 14.385 24.6051C14.3409 24.0194 14.3075 23.4329 14.285 22.8461L15.97 24.5301C16.1122 24.6625 16.3003 24.7347 16.4946 24.7312C16.6889 24.7278 16.8742 24.6491 17.0117 24.5117C17.1491 24.3743 17.2278 24.1889 17.2312 23.9946C17.2346 23.8003 17.1625 23.6122 17.03 23.4701L14.03 20.4701V20.4701Z" fill="#2D4EA2"/>
<rect x="0.5" y="0.5" width="41" height="41" rx="20.5" stroke="#E4E7EC"/>
</svg>
