<svg width="42" height="42" viewBox="0 0 42 42" fill="none" xmlns="http://www.w3.org/2000/svg">
<rect x="0.5" y="0.5" width="41" height="41" rx="20.5" fill="#2D4EA2" fill-opacity="0.069"/>
<path fill-rule="evenodd" clip-rule="evenodd" d="M30.53 15.9701C30.6704 16.1107 30.7493 16.3013 30.7493 16.5001C30.7493 16.6988 30.6704 16.8895 30.53 17.0301L26.03 21.5301C25.8878 21.6626 25.6998 21.7347 25.5055 21.7313C25.3112 21.7278 25.1258 21.6491 24.9884 21.5117C24.851 21.3743 24.7722 21.1889 24.7688 20.9946C24.7654 20.8003 24.8375 20.6123 24.97 20.4701L28.19 17.2501L16.5 17.2501C16.3011 17.2501 16.1103 17.1711 15.9697 17.0304C15.829 16.8898 15.75 16.699 15.75 16.5001C15.75 16.3012 15.829 16.1104 15.9697 15.9698C16.1103 15.8291 16.3011 15.7501 16.5 15.7501L28.19 15.7501L24.97 12.5301C24.8375 12.3879 24.7654 12.1999 24.7688 12.0056C24.7722 11.8113 24.851 11.6259 24.9884 11.4885C25.1258 11.3511 25.3112 11.2723 25.5055 11.2689C25.6998 11.2655 25.8878 11.3376 26.03 11.4701L30.53 15.9701ZM26.25 25.5001C26.25 25.699 26.171 25.8898 26.0303 26.0304C25.8897 26.1711 25.6989 26.2501 25.5 26.2501L13.81 26.2501L17.03 29.4701C17.1037 29.5388 17.1628 29.6216 17.2038 29.7136C17.2448 29.8056 17.2668 29.9049 17.2686 30.0056C17.2704 30.1063 17.2518 30.2063 17.2141 30.2997C17.1764 30.3931 17.1202 30.4779 17.049 30.5491C16.9778 30.6203 16.893 30.6765 16.7996 30.7142C16.7062 30.7519 16.6062 30.7705 16.5055 30.7687C16.4048 30.7669 16.3054 30.7449 16.2134 30.7039C16.1214 30.6629 16.0386 30.6038 15.97 30.5301L11.47 26.0301C11.3295 25.8895 11.2506 25.6988 11.2506 25.5001C11.2506 25.3013 11.3295 25.1107 11.47 24.9701L15.97 20.4701C16.0386 20.3964 16.1215 20.3373 16.2134 20.2963C16.3054 20.2553 16.4048 20.2333 16.5055 20.2315C16.6062 20.2297 16.7062 20.2482 16.7996 20.286C16.893 20.3237 16.9778 20.3798 17.049 20.4511C17.1202 20.5223 17.1764 20.6071 17.2141 20.7005C17.2518 20.7939 17.2704 20.8939 17.2686 20.9946C17.2668 21.0953 17.2448 21.1946 17.2038 21.2866C17.1628 21.3786 17.1037 21.4614 17.03 21.5301L13.81 24.7501L25.5 24.7501C25.6989 24.7501 25.8897 24.8291 26.0303 24.9698C26.171 25.1104 26.25 25.3012 26.25 25.5001Z" fill="#2D4EA2"/>
<rect x="0.5" y="0.5" width="41" height="41" rx="20.5" stroke="#E4E7EC"/>
</svg>
