<svg width="16" height="17" viewBox="0 0 16 17" fill="none" xmlns="http://www.w3.org/2000/svg">
<path d="M5.03168 14.8338C11.0694 14.8338 14.3718 9.83154 14.3718 5.49362C14.3718 5.35154 14.3718 5.2101 14.3622 5.0693C15.0047 4.6046 15.5593 4.02922 16 3.3701C15.4009 3.6357 14.7654 3.8098 14.1146 3.88658C14.7999 3.47637 15.3128 2.8311 15.5578 2.0709C14.9134 2.4533 14.2084 2.72278 13.4733 2.8677C12.9783 2.34142 12.3237 1.99293 11.6108 1.87616C10.8978 1.75938 10.1663 1.88084 9.52931 2.22173C8.89234 2.56263 8.38548 3.10395 8.08716 3.76193C7.78884 4.41991 7.71569 5.15788 7.87904 5.86162C6.57393 5.79615 5.29717 5.45697 4.13164 4.8661C2.9661 4.27523 1.93784 3.44587 1.1136 2.43186C0.693819 3.15452 0.565248 4.01001 0.754066 4.82414C0.942885 5.63827 1.43489 6.34983 2.12992 6.81394C1.60749 6.79863 1.09643 6.6577 0.64 6.40306V6.44466C0.640207 7.20256 0.902567 7.93706 1.38258 8.52357C1.86259 9.11008 2.53071 9.51251 3.2736 9.66258C2.79032 9.7944 2.28325 9.81367 1.79136 9.7189C2.00121 10.3711 2.40962 10.9415 2.95949 11.3502C3.50937 11.7589 4.17322 11.9856 4.85824 11.9986C4.17763 12.5336 3.39821 12.9291 2.56458 13.1626C1.73096 13.3961 0.859476 13.4629 0 13.3592C1.50122 14.3226 3.24795 14.8336 5.03168 14.8312" fill="#1DA1F2"/>
</svg>
