<svg width="40" height="40" viewBox="0 0 40 40" fill="none" xmlns="http://www.w3.org/2000/svg">
<rect width="40" height="40" rx="20" fill="#50AF95"/>
<path fill-rule="evenodd" clip-rule="evenodd" d="M22.0347 21.6759C21.921 21.6843 21.3339 21.7185 20.0241 21.7185C18.9824 21.7185 18.2428 21.688 17.9833 21.6759C13.9576 21.5029 10.9527 20.8182 10.9527 19.9984C10.9527 19.1785 13.9576 18.4947 17.9833 18.3189V20.994C18.2466 21.0125 19.0004 21.056 20.0421 21.056C21.2922 21.056 21.9182 21.0051 22.0309 20.9949V18.3208C26.0481 18.4957 29.0464 19.1804 29.0464 19.9984C29.0464 20.8163 26.0491 21.5011 22.0309 21.675L22.0347 21.6759ZM22.0347 18.0441V15.6503H27.641V12H12.377V15.6503H17.9824V18.0432C13.4263 18.2477 10 19.1295 10 20.1862C10 21.2429 13.4263 22.1238 17.9824 22.3292V30H22.0337V22.3264C26.5794 22.1219 30 21.241 30 20.1853C30 19.1295 26.5822 18.2486 22.0337 18.0432L22.0347 18.0441Z" fill="white"/>
</svg>
