<svg width="23" height="23" viewBox="0 0 23 23" fill="none" xmlns="http://www.w3.org/2000/svg">
<path d="M2.58365 5.48978C3.31085 4.84784 4.26613 4.45831 5.3124 4.45831H17.6874C18.7337 4.45831 19.689 4.84784 20.4162 5.48978C20.2471 4.13313 19.0898 3.08331 17.6874 3.08331H5.3124C3.90996 3.08331 2.75271 4.13313 2.58365 5.48978Z" fill="#344054"/>
<path d="M2.58365 8.23978C3.31085 7.59784 4.26613 7.20831 5.3124 7.20831H17.6874C18.7337 7.20831 19.689 7.59784 20.4162 8.23978C20.2471 6.88313 19.0898 5.83331 17.6874 5.83331H5.3124C3.90996 5.83331 2.75271 6.88313 2.58365 8.23978Z" fill="#344054"/>
<path d="M5.3125 8.58331C3.79372 8.58331 2.5625 9.81453 2.5625 11.3333V16.8333C2.5625 18.3521 3.79372 19.5833 5.3125 19.5833H17.6875C19.2063 19.5833 20.4375 18.3521 20.4375 16.8333V11.3333C20.4375 9.81453 19.2063 8.58331 17.6875 8.58331H14.25C13.8703 8.58331 13.5625 8.89112 13.5625 9.27081C13.5625 10.4099 12.6391 11.3333 11.5 11.3333C10.3609 11.3333 9.4375 10.4099 9.4375 9.27081C9.4375 8.89112 9.1297 8.58331 8.75 8.58331H5.3125Z" fill="#344054"/>
</svg>
