<svg width="22" height="23" viewBox="0 0 22 23" fill="none" xmlns="http://www.w3.org/2000/svg">
<path fill-rule="evenodd" clip-rule="evenodd" d="M2.19995 5.00833C2.19995 3.64142 3.30805 2.53333 4.67495 2.53333H17.325C18.6919 2.53333 19.8 3.64142 19.8 5.00833V14.3583C19.8 15.7252 18.6919 16.8333 17.325 16.8333H13.9093C14.1258 17.5614 14.5521 18.1993 15.1193 18.6777C15.3841 18.9011 15.4812 19.2661 15.3622 19.5915C15.2433 19.9169 14.9338 20.1333 14.5874 20.1333H7.41264C7.0662 20.1333 6.75667 19.9169 6.63776 19.5915C6.51885 19.2661 6.61589 18.9011 6.88069 18.6777C7.44789 18.1993 7.87417 17.5614 8.09073 16.8333H4.67495C3.30805 16.8333 2.19995 15.7252 2.19995 14.3583V5.00833ZM3.84995 5.00833C3.84995 4.55269 4.21932 4.18333 4.67495 4.18333H17.325C17.7806 4.18333 18.15 4.55269 18.15 5.00833V13.2583C18.15 13.714 17.7806 14.0833 17.325 14.0833H4.67495C4.21932 14.0833 3.84995 13.714 3.84995 13.2583V5.00833Z" fill="#344054"/>
</svg>
